<svg width="108" height="108" viewBox="0 0 108 108" fill="none" xmlns="http://www.w3.org/2000/svg">
<path d="M98.9718 58.2635L97.8741 42.9797C97.7668 41.4857 96.4726 40.365 94.9786 40.4723L79.6948 41.57C78.2008 41.6773 77.08 42.9714 77.1874 44.4654C77.2947 45.9594 78.5888 47.0801 80.0828 46.9728L88.8443 46.3436L86.0319 49.5912C77.5645 59.369 65.115 67.7909 53.0917 66.2406C62.5533 58.7284 60.3785 48.8758 54.9153 44.1448C49.2698 39.2559 40.6993 39.8714 35.8104 45.5169C31.3418 50.6771 30.3521 59.6778 39.4093 66.3207C29.0448 67.9984 15.9953 64.1905 5.79156 55.3543C4.66123 54.3755 2.95121 54.4964 1.97059 55.6288C0.989977 56.7611 1.1147 58.4709 2.24503 59.4497C15.8459 71.2278 33.5285 74.9737 46.2533 70.1154C62.1494 76.2594 79.1649 65.7966 90.1273 53.1378L92.9397 49.8901L93.569 58.6516C93.6763 60.1456 94.9704 61.2663 96.4644 61.159C97.9584 61.0517 99.0791 59.7575 98.9718 58.2635ZM39.9058 49.0635C42.8388 45.6766 47.9818 45.3072 51.3687 48.2402C55.9003 52.1644 55.5552 59.6055 46.2542 64.193C37.0105 59.6854 36.2387 53.2981 39.9058 49.0635Z" fill="#FF014F"/>
</svg>
