<svg width="126" height="17" viewBox="0 0 126 17" fill="none" xmlns="http://www.w3.org/2000/svg">
<path d="M17.9458 6.51767C17.8345 6.17344 17.5292 5.92895 17.1679 5.89639L12.2613 5.45086L10.3211 0.909582C10.178 0.576764 9.85218 0.361328 9.49018 0.361328C9.12818 0.361328 8.80237 0.576764 8.65931 0.91036L6.71908 5.45086L1.81165 5.89639C1.45107 5.92973 1.14653 6.17344 1.0346 6.51767C0.922665 6.8619 1.02604 7.23947 1.2988 7.47747L5.00765 10.7302L3.914 15.5477C3.83397 15.9019 3.97146 16.2681 4.26536 16.4805C4.42334 16.5947 4.60817 16.6528 4.79455 16.6528C4.95525 16.6528 5.11466 16.6095 5.25772 16.5238L9.49018 13.9943L13.7211 16.5238C14.0307 16.7101 14.421 16.6931 14.7142 16.4805C15.0083 16.2674 15.1456 15.9011 15.0656 15.5477L13.9719 10.7302L17.6808 7.47812C17.9535 7.23947 18.0577 6.86255 17.9458 6.51767Z" fill="#FF014F"/>
<path d="M44.9458 6.51767C44.8345 6.17344 44.5292 5.92895 44.1679 5.89639L39.2613 5.45086L37.3211 0.909582C37.178 0.576764 36.8522 0.361328 36.4902 0.361328C36.1282 0.361328 35.8024 0.576764 35.6593 0.91036L33.7191 5.45086L28.8116 5.89639C28.4511 5.92973 28.1465 6.17344 28.0346 6.51767C27.9227 6.8619 28.026 7.23947 28.2988 7.47747L32.0077 10.7302L30.914 15.5477C30.834 15.9019 30.9715 16.2681 31.2654 16.4805C31.4233 16.5947 31.6082 16.6528 31.7946 16.6528C31.9553 16.6528 32.1147 16.6095 32.2577 16.5238L36.4902 13.9943L40.7211 16.5238C41.0307 16.7101 41.421 16.6931 41.7142 16.4805C42.0083 16.2674 42.1456 15.9011 42.0656 15.5477L40.9719 10.7302L44.6808 7.47812C44.9535 7.23947 45.0577 6.86255 44.9458 6.51767Z" fill="#FF014F"/>
<path d="M71.9458 6.51767C71.8345 6.17344 71.5292 5.92895 71.1679 5.89639L66.2613 5.45086L64.3211 0.909582C64.178 0.576764 63.8522 0.361328 63.4902 0.361328C63.1282 0.361328 62.8024 0.576764 62.6593 0.91036L60.7191 5.45086L55.8116 5.89639C55.4511 5.92973 55.1465 6.17344 55.0346 6.51767C54.9227 6.8619 55.026 7.23947 55.2988 7.47747L59.0077 10.7302L57.914 15.5477C57.834 15.9019 57.9715 16.2681 58.2654 16.4805C58.4233 16.5947 58.6082 16.6528 58.7946 16.6528C58.9553 16.6528 59.1147 16.6095 59.2577 16.5238L63.4902 13.9943L67.7211 16.5238C68.0307 16.7101 68.421 16.6931 68.7142 16.4805C69.0083 16.2674 69.1456 15.9011 69.0656 15.5477L67.9719 10.7302L71.6808 7.47812C71.9535 7.23947 72.0577 6.86255 71.9458 6.51767Z" fill="#FF014F"/>
<path d="M98.9458 6.51767C98.8345 6.17344 98.5292 5.92895 98.1679 5.89639L93.2613 5.45086L91.3211 0.909582C91.178 0.576764 90.8522 0.361328 90.4902 0.361328C90.1282 0.361328 89.8024 0.576764 89.6593 0.91036L87.7191 5.45086L82.8116 5.89639C82.4511 5.92973 82.1465 6.17344 82.0346 6.51767C81.9227 6.8619 82.026 7.23947 82.2988 7.47747L86.0077 10.7302L84.914 15.5477C84.834 15.9019 84.9715 16.2681 85.2654 16.4805C85.4233 16.5947 85.6082 16.6528 85.7946 16.6528C85.9553 16.6528 86.1147 16.6095 86.2577 16.5238L90.4902 13.9943L94.7211 16.5238C95.0307 16.7101 95.421 16.6931 95.7142 16.4805C96.0083 16.2674 96.1456 15.9011 96.0656 15.5477L94.9719 10.7302L98.6808 7.47812C98.9535 7.23947 99.0577 6.86255 98.9458 6.51767Z" fill="#FF014F"/>
<path d="M125.946 6.51767C125.834 6.17344 125.529 5.92895 125.168 5.89639L120.261 5.45086L118.321 0.909582C118.178 0.576764 117.852 0.361328 117.49 0.361328C117.128 0.361328 116.802 0.576764 116.659 0.91036L114.719 5.45086L109.812 5.89639C109.451 5.92973 109.147 6.17344 109.035 6.51767C108.923 6.8619 109.026 7.23947 109.299 7.47747L113.008 10.7302L111.914 15.5477C111.834 15.9019 111.971 16.2681 112.265 16.4805C112.423 16.5947 112.608 16.6528 112.795 16.6528C112.955 16.6528 113.115 16.6095 113.258 16.5238L117.49 13.9943L121.721 16.5238C122.031 16.7101 122.421 16.6931 122.714 16.4805C123.008 16.2674 123.146 15.9011 123.066 15.5477L121.972 10.7302L125.681 7.47812C125.954 7.23947 126.058 6.86255 125.946 6.51767Z" fill="#FF014F"/>
</svg>
