<svg width="111" height="110" viewBox="0 0 111 110" fill="none" xmlns="http://www.w3.org/2000/svg">
<path d="M13.6587 1.03562C12.5517 1.77365 11.0756 1.95816 10.1531 2.8807C9.41504 3.43423 9.41504 4.54128 10.1531 5.0948C10.8911 5.46382 11.8136 5.0948 12.5517 4.91029C13.1052 4.72579 13.2897 4.35677 13.2897 3.80324C13.8432 3.43423 14.3968 3.06521 14.7658 2.51169C15.5038 1.77365 14.5813 0.297585 13.6587 1.03562Z" fill="white"/>
<path d="M6.2783 11.9217C5.17125 12.8443 4.06419 13.9513 3.14165 15.0584C2.21911 16.1654 1.11206 17.6415 1.11206 18.933C1.11206 19.6711 2.0346 20.0401 2.40362 19.4866C3.32616 18.564 3.51067 17.088 4.2487 15.9809C4.98674 14.6894 5.90928 13.7668 7.01633 12.6598C7.38535 12.1062 6.64731 11.5527 6.2783 11.9217Z" fill="white"/>
<path d="M1.85018 28.5273C1.48116 27.0512 1.29666 25.3907 1.29666 23.7301C1.29666 23.1766 0.374114 23.1766 0.374114 23.7301C0.374114 25.9442 -0.732937 30.3724 1.48116 31.8485C1.85018 32.2175 2.40371 31.6639 2.40371 31.2949C2.40371 30.3724 2.03469 29.4498 1.85018 28.5273Z" fill="white"/>
<path d="M12.1827 35.5389C9.23054 35.9079 6.64742 36.4614 3.87979 34.9853C3.51078 34.8008 3.32627 35.1699 3.69529 35.3544C6.46291 37.384 9.59956 38.3065 12.7362 36.6459C13.4742 36.2769 12.7362 35.3544 12.1827 35.5389Z" fill="white"/>
<path d="M25.4673 25.9444C23.9912 26.4979 22.8842 27.605 21.5926 28.5275C20.1165 29.6345 18.825 30.7416 17.5334 32.0332C17.1644 32.4022 17.7179 33.1402 18.2715 32.7712C19.3785 31.6641 20.6701 30.9261 21.9616 30.0036C23.2532 29.081 24.9138 28.343 26.0208 27.2359C26.5743 26.6824 26.2053 25.5754 25.4673 25.9444Z" fill="white"/>
<path d="M37.8293 12.6595C34.5082 13.9511 31.3715 17.0877 28.9729 19.6709C28.6039 20.2244 29.1574 20.7779 29.711 20.4089C31.187 19.1173 32.8476 17.8258 34.5082 16.7187C35.7997 15.7962 37.2758 15.0581 38.3829 13.9511C38.9364 13.2131 38.3829 12.475 37.8293 12.6595Z" fill="white"/>
<path d="M54.2506 5.83267C50.9295 5.64816 47.6083 6.93972 44.6562 8.04677C44.1027 8.23128 44.2872 8.96931 44.8407 8.96931C47.9773 8.04677 51.114 7.67775 54.2506 7.49324C55.1732 7.30873 55.1732 5.83267 54.2506 5.83267Z" fill="white"/>
<path d="M66.6126 11.9217C65.69 10.8147 64.3985 9.70762 63.2914 8.78507C62.3689 8.04704 61.2618 9.15409 61.9999 10.0766C62.9227 10.9992 63.8449 12.1062 64.7675 13.2133C65.6903 14.3203 66.6126 15.9809 67.9041 16.9034C68.4576 17.2725 69.1957 16.7189 69.0112 15.9809C69.0112 14.5048 67.7196 13.0288 66.6126 11.9217Z" fill="white"/>
<path d="M70.1182 21.8851C70.1182 21.147 68.8269 21.147 68.8269 21.8851C68.6424 23.7302 68.2734 25.3907 67.9041 27.2358C67.5351 28.8964 66.6125 30.557 66.6125 32.402C66.6125 33.3246 67.9041 33.6936 68.2734 32.7711C69.934 29.6344 70.3027 25.2062 70.1182 21.8851Z" fill="white"/>
<path d="M62.1845 40.5202C61.2616 41.8118 60.3394 43.1033 59.4166 44.3949C58.6788 45.6865 57.3873 46.978 57.2025 48.4541C57.2025 49.1921 57.9405 49.3766 58.494 49.1921C59.7856 48.6386 60.3391 46.978 60.8926 45.871C61.8152 44.3949 62.5532 42.7343 63.4757 41.2583C63.8451 40.3357 62.738 39.7822 62.1845 40.5202Z" fill="white"/>
<path d="M52.959 53.9894C51.2984 55.4654 50.0069 56.9415 48.8998 58.6021C47.7928 60.2627 46.3167 62.6613 46.6857 64.6909C46.8702 65.6134 47.7928 65.7979 48.3463 65.0599C49.2688 63.7683 49.4534 61.9232 50.0069 60.4472C50.7449 58.2331 52.0365 56.2035 53.5125 54.3584C53.8816 54.1739 53.328 53.6203 52.959 53.9894Z" fill="white"/>
<path d="M42.4421 72.0711C40.7815 73.5472 39.4899 75.2078 38.3829 77.2373C37.2758 79.2669 35.9843 81.8504 36.3533 84.0645C36.5378 84.8025 37.6449 84.8025 37.8294 84.249C38.9364 82.5881 38.9364 80.374 39.6745 78.5289C40.4125 76.4996 41.704 74.4697 43.1801 72.6246C43.5491 72.2556 42.9956 71.5176 42.4421 72.0711Z" fill="white"/>
<path d="M42.2575 100.301C40.9659 99.5629 39.8589 99.0094 38.9363 97.9023C38.0138 96.4263 37.6448 94.2122 37.6448 92.5516C37.6448 91.9978 36.7222 91.9978 36.7222 92.5516C36.3532 96.0573 37.0912 102.146 41.8885 101.962C42.6265 101.777 42.9955 100.67 42.2575 100.301Z" fill="white"/>
<path d="M61.8155 106.759C59.7862 106.574 57.7563 106.943 55.727 106.943C53.1436 106.759 50.745 106.02 48.7154 104.544C48.3464 104.36 48.1619 104.914 48.3464 105.098C52.221 108.05 57.5721 110.633 62.3693 108.604C63.2915 108.05 62.738 106.759 61.8155 106.759Z" fill="white"/>
<path d="M77.4986 94.2123C76.2071 94.9504 75.1 96.0574 73.6239 96.9799C72.3324 97.718 70.856 98.087 69.3802 98.2715C68.4574 98.456 68.4574 99.7476 69.3802 99.7476C72.7014 99.9321 76.9451 98.825 78.7902 95.6884C79.5285 94.7658 78.4212 93.843 77.4986 94.2123Z" fill="white"/>
<path d="M85.0634 83.1416C82.6648 85.5402 80.082 88.1233 78.4212 91.0754C77.8676 91.9983 79.1592 92.5515 79.7127 91.8135C81.7423 89.2303 85.0635 87.3853 86.5398 84.2486C86.724 83.3264 85.8015 82.4038 85.0634 83.1416Z" fill="white"/>
<path d="M98.9019 83.3263C98.3484 82.2192 96.8723 81.4812 95.7652 80.9277C94.4737 80.3741 92.9976 80.1899 91.5216 80.1899C90.599 80.1899 90.599 81.4812 91.5216 81.4812C92.8131 81.4812 93.9202 81.8505 95.0272 82.404C95.9501 82.9576 96.6881 83.8801 97.6103 84.4333C98.3484 84.9866 99.2706 84.0643 98.9019 83.3263Z" fill="white"/>
<path d="M109.972 90.522C107.389 86.2783 105.728 81.481 103.514 77.0528C102.407 75.0232 99.4551 76.8683 100.378 78.8979C102.038 82.5878 103.514 86.4628 105.728 89.9684C104.068 90.1529 102.407 90.3374 100.562 90.522C99.8241 90.7065 98.5325 90.7065 97.979 91.4448L97.7948 91.629C97.7948 91.629 97.6103 91.629 97.6103 91.8135C97.2413 92.1825 97.6103 92.9206 97.9793 92.9206C98.1638 93.1051 98.3486 93.1051 98.7174 93.1051C99.6402 93.2893 100.562 93.1051 101.67 93.1051C104.068 92.9206 106.282 92.7358 108.681 92.9206C109.788 93.1051 110.526 91.629 109.972 90.522Z" fill="white"/>
</svg>
