<svg width="80" height="81" viewBox="0 0 80 81" fill="none" xmlns="http://www.w3.org/2000/svg">
<rect x="-0.000244141" y="0.241211" width="80" height="80" rx="10" fill="#FFAEC7"/>
<path d="M58.7793 32.3008H19.3074C18.333 32.3008 17.5431 33.0907 17.5431 34.0651V38.8046H60.5437V34.0651C60.5436 33.0908 59.7537 32.3008 58.7793 32.3008Z" fill="#FFB125"/>
<path d="M44.4491 22.5024L40.8746 58.6891C40.7848 59.5981 39.9751 60.2622 39.0661 60.1724L20.9543 58.3833C20.0452 58.2935 19.3812 57.4838 19.471 56.5747L23.0455 20.3882C23.1353 19.4791 23.945 18.8151 24.854 18.9049L42.9658 20.694C43.8747 20.7837 44.5388 21.5934 44.4491 22.5024Z" fill="#B6FA4C"/>
<path d="M42.9658 20.694L24.8541 18.9049C23.945 18.8151 23.1353 19.4791 23.0455 20.3882L22.7249 23.6348C22.9965 23.4967 23.3089 23.4307 23.6346 23.4629L41.7464 25.2521C42.6554 25.3419 43.3195 26.1515 43.2297 27.0606L39.9758 60.0008C40.4622 59.7536 40.817 59.2725 40.8745 58.6893L44.4491 22.5026C44.539 21.5935 43.8748 20.7838 42.9658 20.694Z" fill="#A8E83A"/>
<path d="M24.9652 25.5194L22.3576 51.9185C22.3203 52.2964 22.4981 52.6647 22.8204 52.8655C23.7084 53.4192 24.396 54.2497 24.7738 55.2248C24.9097 55.5753 25.2341 55.817 25.6081 55.854L34.9971 56.7814C35.3711 56.8184 35.7367 56.6448 35.9383 56.3276C36.4996 55.4454 37.3365 54.7653 38.3156 54.3962C38.6709 54.2622 38.9175 53.9359 38.9547 53.5581L41.5624 27.1589C41.5997 26.7811 41.4218 26.4128 41.0996 26.2119C40.2116 25.6583 39.524 24.8278 39.1462 23.8527C39.0103 23.5023 38.6859 23.2605 38.3119 23.2235L28.9228 22.2961C28.5488 22.2591 28.1833 22.4327 27.9816 22.7498C27.4203 23.6321 26.5835 24.3121 25.6043 24.6813C25.2491 24.8153 25.0026 25.1416 24.9652 25.5194Z" fill="#77DD00"/>
<path d="M41.0997 26.2119C40.2118 25.6583 39.5242 24.8278 39.1463 23.8527C39.0105 23.5022 38.686 23.2605 38.312 23.2235L28.923 22.2961C28.549 22.2591 28.1834 22.4327 27.9817 22.7498C27.4204 23.6321 26.5836 24.3121 25.6044 24.6813C25.2491 24.8153 25.0026 25.1416 24.9653 25.5194L24.866 26.5244L37.0317 27.6886C37.4057 27.7256 37.7302 27.9672 37.8659 28.3177C38.2438 29.2928 38.9314 30.1234 39.8194 30.677C40.1416 30.8779 40.3195 31.2462 40.2822 31.624L38.0205 54.5199C38.1175 54.4758 38.2156 54.434 38.3157 54.3963C38.671 54.2623 38.9175 53.936 38.9548 53.5582L41.5625 27.159C41.5998 26.7811 41.4219 26.4128 41.0997 26.2119Z" fill="#73CC00"/>
<path d="M59.806 27.8937L39.3285 57.9424C38.8141 58.6972 37.7852 58.8922 37.0304 58.3778L21.9907 48.1286C21.2359 47.6142 21.0409 46.5853 21.5553 45.8305L42.0329 15.7818C42.5473 15.027 43.5762 14.832 44.331 15.3464L59.3707 25.5956C60.1255 26.11 60.3203 27.1388 59.806 27.8937Z" fill="#B6FA4C"/>
<path d="M59.3707 25.5956L44.331 15.3464C43.5762 14.832 42.5473 15.0269 42.0329 15.7818L40.2813 18.3521C40.4333 18.3996 40.5811 18.4697 40.7196 18.564L55.7593 28.8132C56.5141 29.3276 56.709 30.3565 56.1946 31.1113L37.4688 58.5898C38.1455 58.8015 38.9086 58.5589 39.3286 57.9425L59.8061 27.8937C60.3204 27.1389 60.1255 26.11 59.3707 25.5956Z" fill="#A8E83A"/>
<path d="M41.2591 21.2055L26.3202 43.1268C26.1064 43.4406 26.0861 43.8491 26.2726 44.1798C26.7868 45.0912 26.9923 46.1496 26.8566 47.1866C26.8079 47.5593 26.9768 47.927 27.2874 48.1386L35.084 53.4517C35.3945 53.6634 35.7985 53.6861 36.1276 53.5044C37.0431 52.999 38.1033 52.8031 39.1396 52.9482C39.5157 53.0009 39.8884 52.8327 40.1023 52.5189L55.0411 30.5976C55.255 30.2838 55.2753 29.8754 55.0886 29.5447C54.5745 28.6333 54.369 27.5748 54.5046 26.5379C54.5533 26.1653 54.3844 25.7976 54.0739 25.586L46.2773 20.2728C45.9668 20.0611 45.5628 20.0384 45.2337 20.22C44.3182 20.7255 43.258 20.9213 42.2216 20.7762C41.8457 20.7234 41.4728 20.8917 41.2591 21.2055Z" fill="#77DD00"/>
<path d="M55.0886 29.5446C54.5745 28.6333 54.3691 27.5748 54.5046 26.5379C54.5533 26.1653 54.3844 25.7976 54.0739 25.5859L46.2773 20.2727C45.9667 20.0611 45.5627 20.0383 45.2337 20.22C44.3183 20.7254 43.2579 20.9213 42.2216 20.7761C41.8456 20.7235 41.4728 20.8917 41.259 21.2055L40.6364 22.119L50.3803 28.6872C50.6908 28.8988 50.8598 29.2665 50.811 29.6391C50.6755 30.676 50.881 31.7344 51.3951 32.6458C51.5816 32.9766 51.5613 33.3851 51.3475 33.6988L38.2576 52.9073C38.5511 52.8944 38.8463 52.9072 39.1397 52.9483C39.5158 53.001 39.8885 52.8327 40.1024 52.5189L55.0411 30.5976C55.255 30.2838 55.2752 29.8754 55.0886 29.5446Z" fill="#73CC00"/>
<path d="M42.9685 40.1819C45.9234 40.1819 48.3189 37.7865 48.3189 34.8316C48.3189 31.8767 45.9234 29.4813 42.9685 29.4813C40.0136 29.4813 37.6182 31.8767 37.6182 34.8316C37.6182 37.7865 40.0136 40.1819 42.9685 40.1819Z" fill="#B6FA4C"/>
<path d="M59.3906 65.4241H18.1725C16.7672 65.4241 15.6279 64.2849 15.6279 62.8795V37.6976C15.6279 36.2923 16.7671 35.153 18.1725 35.153H59.3906C60.7959 35.153 61.9352 36.2922 61.9352 37.6976V62.8795C61.9352 64.2849 60.796 65.4241 59.3906 65.4241Z" fill="#FFB125"/>
<path d="M59.3906 35.153H54.7613C56.1666 35.153 57.3059 36.2923 57.3059 37.6976V62.8795C57.3059 64.2848 56.1666 65.4241 54.7613 65.4241H59.3906C60.7959 65.4241 61.9352 64.2849 61.9352 62.8795V37.6976C61.9352 36.2923 60.7959 35.153 59.3906 35.153Z" fill="#FF901D"/>
<path d="M63.4498 45.4246H54.1727C51.4864 45.4246 49.3087 47.6023 49.3087 50.2886C49.3087 52.975 51.4864 55.1527 54.1727 55.1527H63.4498C63.9589 55.1527 64.3717 54.7399 64.3717 54.2308V46.3465C64.3717 45.8374 63.9589 45.4246 63.4498 45.4246Z" fill="#FF6D3A"/>
<path d="M63.4498 45.4246H58.8041C59.3133 45.4246 59.726 45.8373 59.726 46.3465V52.9875C59.726 53.5305 59.2858 53.9707 58.7428 53.9707H54.1727C51.6865 53.9707 49.6373 52.105 49.3456 49.6975C49.3221 49.8914 49.3086 50.0884 49.3086 50.2885C49.3086 52.9749 51.4863 55.1526 54.1727 55.1526H58.804H63.4497C63.9588 55.1526 64.3716 54.7399 64.3716 54.2307V53.0488V46.3465C64.3717 45.8374 63.9589 45.4246 63.4498 45.4246Z" fill="#ED5729"/>
<path d="M59.3906 35.153H18.1725C16.7672 35.153 15.6279 36.2923 15.6279 37.6976V40.4862H61.9352V37.6976C61.9352 36.2923 60.796 35.153 59.3906 35.153Z" fill="#FF6D3A"/>
<path d="M61.5006 36.275C61.4091 36.1396 61.3049 36.0135 61.1898 35.8984C61.1884 35.897 61.1871 35.8958 61.1857 35.8945C61.0717 35.7809 60.947 35.678 60.8132 35.5876C60.7793 35.5648 60.7449 35.5427 60.7099 35.5214C60.6578 35.4899 60.6042 35.4607 60.5498 35.4327C60.5146 35.4146 60.4789 35.3974 60.4427 35.3809C60.1219 35.2349 59.7658 35.153 59.3904 35.153H54.7615C56.1667 35.1531 57.3058 36.2923 57.3058 37.6976V40.486H61.9351V37.6976C61.9351 37.2584 61.8238 36.8452 61.628 36.4847C61.5889 36.4127 61.5463 36.3426 61.5006 36.275Z" fill="#ED5729"/>
<path d="M18.1725 65.424H59.3906C60.7959 65.424 61.9352 64.2847 61.9352 62.8794V60.0908H15.6279V62.8794C15.6279 64.2847 16.7671 65.424 18.1725 65.424Z" fill="#FF6D3A"/>
<path d="M57.3059 60.0908V62.8794C57.3059 62.8809 57.3059 62.8823 57.3059 62.8837C57.3055 63.1187 57.1088 63.3063 56.8738 63.3063H18.1725C16.7672 63.3063 15.6279 62.167 15.6279 60.7617V62.8793C15.6279 64.2848 16.7671 65.424 18.1725 65.424H54.7614H59.3906C59.4409 65.424 59.4907 65.4221 59.5402 65.4193C59.5556 65.4184 59.571 65.4169 59.5863 65.4158C59.6208 65.4131 59.6552 65.41 59.6893 65.4059C59.7062 65.404 59.7231 65.4018 59.7401 65.3995C59.774 65.3949 59.8076 65.3894 59.8411 65.3835C59.8559 65.3808 59.8709 65.3785 59.8856 65.3755C59.933 65.3662 59.98 65.3559 60.0263 65.3439C60.0263 65.3439 60.0264 65.3439 60.0265 65.3439C60.0469 65.3387 60.0667 65.3325 60.0869 65.3268C60.1875 65.2982 60.2859 65.2644 60.3811 65.2241C60.4192 65.208 60.4568 65.1911 60.4939 65.1732C60.5309 65.1553 60.5675 65.1366 60.6035 65.117L60.6036 65.1169C60.6757 65.0778 60.7456 65.0353 60.8133 64.9896L60.8134 64.9895L60.8135 64.9894C60.8711 64.9505 60.9266 64.9089 60.9806 64.8655C60.9832 64.8634 60.9858 64.8614 60.9883 64.8594C61.0431 64.8151 61.0958 64.7685 61.1467 64.7199C61.2066 64.6626 61.2638 64.6026 61.3179 64.5399V64.5398C61.4025 64.4416 61.4799 64.337 61.549 64.2267C61.5508 64.2237 61.5528 64.2208 61.5547 64.2178C61.5801 64.1768 61.6046 64.1353 61.6278 64.0928C61.6278 64.0927 61.6279 64.0926 61.628 64.0924V64.0923C61.6894 63.9791 61.7424 63.8604 61.7863 63.7376C61.7914 63.7236 61.7959 63.7093 61.8007 63.6953C61.8113 63.6639 61.8215 63.6322 61.8309 63.6003C61.8356 63.5841 61.8402 63.5679 61.8448 63.5516C61.8535 63.5195 61.8616 63.4871 61.8691 63.4545C61.8725 63.4396 61.8762 63.4248 61.8794 63.4098C61.8893 63.3629 61.8984 63.3156 61.9057 63.2678C61.9057 63.2675 61.9058 63.2673 61.9058 63.267C61.9058 63.2669 61.9058 63.2667 61.9058 63.2666C61.9143 63.2107 61.9203 63.1539 61.9251 63.0969C61.9263 63.0824 61.9274 63.068 61.9285 63.0535C61.9324 62.996 61.9351 62.938 61.9351 62.8794V60.7618V60.0909L57.3059 60.0908Z" fill="#ED5729"/>
<path d="M54.346 52.5477C55.5933 52.5477 56.6045 51.5365 56.6045 50.2892C56.6045 49.0419 55.5933 48.0308 54.346 48.0308C53.0987 48.0308 52.0875 49.0419 52.0875 50.2892C52.0875 51.5365 53.0987 52.5477 54.346 52.5477Z" fill="#F2F2F2"/>
</svg>
