<svg width="80" height="81" viewBox="0 0 80 81" fill="none" xmlns="http://www.w3.org/2000/svg">
<rect x="-0.000244141" y="0.241211" width="80" height="80" rx="10" fill="#7B5959"/>
<path d="M63.9062 43.699C63.7048 43.3927 63.4451 43.1289 63.1419 42.9229C62.8386 42.7169 62.4977 42.5727 62.1387 42.4985C61.7797 42.4243 61.4096 42.4215 61.0495 42.4903C60.6894 42.5592 60.3464 42.6983 60.0401 42.8997L59.8065 43.0525L62.8721 47.719L63.1057 47.5662C63.4125 47.365 63.6765 47.1054 63.8828 46.8021C64.0891 46.4988 64.2335 46.1578 64.3079 45.7986C64.3822 45.4394 64.385 45.0691 64.3161 44.7088C64.2471 44.3485 64.1079 44.0054 63.9062 43.699Z" fill="#6ADDC7"/>
<path d="M48.8295 18.6318H18.9374C18.5044 18.6275 18.0747 18.7092 17.6735 18.8723C17.2723 19.0353 16.9074 19.2764 16.6001 19.5816C16.2928 19.8867 16.0491 20.2499 15.8832 20.65C15.7174 21.05 15.6326 21.479 15.6338 21.9121V61.8789C15.6338 63.7123 17.1029 65.2412 18.9374 65.2412H48.8295C49.7163 65.2323 50.564 64.8745 51.1889 64.2452C51.8138 63.6159 52.1658 62.7658 52.1685 61.8789V21.9121C52.1685 20.0776 50.6629 18.6318 48.8295 18.6318ZM23.1721 25.1405C22.8084 25.1405 22.4529 25.0326 22.1505 24.8306C21.8481 24.6285 21.6124 24.3413 21.4732 24.0053C21.334 23.6693 21.2976 23.2995 21.3686 22.9428C21.4395 22.5861 21.6147 22.2584 21.8718 22.0012C22.129 21.7441 22.4567 21.5689 22.8134 21.498C23.1701 21.427 23.5398 21.4634 23.8759 21.6026C24.2119 21.7418 24.4991 21.9775 24.7011 22.2799C24.9032 22.5823 25.0111 22.9379 25.0111 23.3016C25.0111 23.5431 24.9635 23.7822 24.8711 24.0053C24.7787 24.2284 24.6433 24.4312 24.4725 24.6019C24.3017 24.7727 24.099 24.9081 23.8759 25.0006C23.6528 25.093 23.4136 25.1405 23.1721 25.1405ZM30.0938 25.1405C29.7301 25.1405 29.3746 25.0326 29.0722 24.8306C28.7698 24.6285 28.5341 24.3413 28.3949 24.0053C28.2557 23.6693 28.2193 23.2995 28.2902 22.9428C28.3612 22.5861 28.5363 22.2584 28.7935 22.0012C29.0507 21.7441 29.3783 21.5689 29.7351 21.498C30.0918 21.427 30.4615 21.4634 30.7975 21.6026C31.1335 21.7418 31.4207 21.9775 31.6228 22.2799C31.8249 22.5823 31.9327 22.9379 31.9327 23.3016C31.9328 23.5431 31.8852 23.7822 31.7928 24.0053C31.7004 24.2284 31.5649 24.4312 31.3942 24.6019C31.2234 24.7727 31.0207 24.9081 30.7976 25.0006C30.5744 25.093 30.3353 25.1405 30.0938 25.1405ZM37.0166 25.1405C36.6529 25.1405 36.2973 25.0326 35.9949 24.8306C35.6925 24.6285 35.4568 24.3413 35.3177 24.0053C35.1785 23.6693 35.1421 23.2995 35.213 22.9428C35.284 22.5861 35.4591 22.2584 35.7163 22.0012C35.9735 21.7441 36.3011 21.5689 36.6578 21.498C37.0145 21.427 37.3843 21.4634 37.7203 21.6026C38.0563 21.7418 38.3435 21.9775 38.5456 22.2799C38.7477 22.5823 38.8555 22.9379 38.8555 23.3016C38.8556 23.5431 38.8082 23.7823 38.7158 24.0055C38.6235 24.2286 38.488 24.4314 38.3172 24.6022C38.1464 24.773 37.9437 24.9084 37.7205 25.0008C37.4973 25.0932 37.2581 25.1406 37.0166 25.1405ZM43.9383 25.1405C43.5746 25.1405 43.219 25.0326 42.9166 24.8306C42.6142 24.6285 42.3785 24.3413 42.2393 24.0053C42.1001 23.6693 42.0637 23.2995 42.1347 22.9428C42.2056 22.5861 42.3808 22.2584 42.638 22.0012C42.8951 21.7441 43.2228 21.5689 43.5795 21.498C43.9362 21.427 44.306 21.4634 44.642 21.6026C44.978 21.7418 45.2652 21.9775 45.4673 22.2799C45.6693 22.5823 45.7772 22.9379 45.7772 23.3016C45.7772 23.5431 45.7297 23.7822 45.6373 24.0053C45.5449 24.2284 45.4094 24.4312 45.2386 24.6019C45.0679 24.7727 44.8651 24.9081 44.642 25.0006C44.4189 25.093 44.1798 25.1405 43.9383 25.1405Z" fill="#CAE6EE"/>
<path d="M23.6272 30.2454C24.3875 30.2453 25.1308 30.4706 25.7631 30.893C26.3954 31.3153 26.8882 31.9157 27.1793 32.6181C27.4704 33.3205 27.5466 34.0935 27.3984 34.8393C27.2502 35.5851 26.8841 36.2701 26.3465 36.8079C25.809 37.3456 25.124 37.7118 24.3783 37.8603C23.6325 38.0087 22.8595 37.9327 22.157 37.6418C21.4545 37.351 20.854 36.8583 20.4315 36.2261C20.009 35.594 19.7834 34.8507 19.7833 34.0904C19.7832 33.0708 20.1882 32.0929 20.909 31.3719C21.6299 30.6508 22.6076 30.2456 23.6272 30.2454Z" fill="#81C83D"/>
<path d="M23.6272 41.3165C24.3875 41.3164 25.1308 41.5418 25.7631 41.9641C26.3954 42.3865 26.8882 42.9868 27.1793 43.6893C27.4704 44.3917 27.5466 45.1647 27.3984 45.9105C27.2502 46.6562 26.8841 47.3413 26.3465 47.879C25.809 48.4168 25.124 48.783 24.3783 48.9315C23.6325 49.0799 22.8595 49.0039 22.157 48.713C21.4545 48.4221 20.854 47.9295 20.4315 47.2973C20.009 46.6651 19.7834 45.9219 19.7833 45.1615C19.7832 44.142 20.1882 43.1641 20.909 42.4431C21.6299 41.722 22.6076 41.3168 23.6272 41.3165Z" fill="#81C83D"/>
<path d="M23.6272 52.3876C24.3875 52.3875 25.1308 52.6128 25.7631 53.0352C26.3954 53.4575 26.8882 54.0579 27.1793 54.7603C27.4704 55.4627 27.5466 56.2357 27.3984 56.9815C27.2502 57.7273 26.8841 58.4123 26.3465 58.9501C25.809 59.4878 25.124 59.8541 24.3783 60.0025C23.6325 60.1509 22.8595 60.0749 22.157 59.784C21.4545 59.4932 20.854 59.0005 20.4315 58.3683C20.009 57.7362 19.7834 56.9929 19.7833 56.2326C19.7832 55.213 20.1882 54.2352 20.909 53.5141C21.6299 52.7931 22.6076 52.3878 23.6272 52.3876Z" fill="#81C83D"/>
<path d="M18.9551 61.8789V21.9121C18.9539 21.479 19.0387 21.05 19.2046 20.65C19.3705 20.2499 19.6141 19.8867 19.9215 19.5816C20.2288 19.2764 20.5936 19.0353 20.9949 18.8723C21.3961 18.7092 21.8257 18.6275 22.2588 18.6318H18.9374C18.5044 18.6275 18.0747 18.7092 17.6735 18.8723C17.2723 19.0353 16.9074 19.2764 16.6001 19.5816C16.2928 19.8867 16.0491 20.2499 15.8832 20.65C15.7174 21.05 15.6326 21.479 15.6338 21.9121V61.8789C15.6338 63.7123 17.1029 65.2412 18.9374 65.2412H22.2588C20.4243 65.2412 18.9551 63.7123 18.9551 61.8789Z" fill="#AAC8CE"/>
<path d="M23.1721 22.1114C22.996 22.1114 22.827 22.0414 22.7024 21.9168C22.5779 21.7923 22.5079 21.6233 22.5079 21.4471V15.9055C22.5079 15.7293 22.5779 15.5603 22.7024 15.4358C22.827 15.3112 22.996 15.2412 23.1721 15.2412C23.3483 15.2412 23.5173 15.3112 23.6419 15.4358C23.7664 15.5603 23.8364 15.7293 23.8364 15.9055V21.4471C23.8364 21.6233 23.7664 21.7923 23.6419 21.9168C23.5173 22.0414 23.3483 22.1114 23.1721 22.1114Z" fill="#6D7486"/>
<path d="M23.1721 22.1114C22.996 22.1114 22.827 22.0414 22.7024 21.9168C22.5779 21.7923 22.5079 21.6233 22.5079 21.4471V15.9055C22.5079 15.7293 22.5779 15.5603 22.7024 15.4358C22.827 15.3112 22.996 15.2412 23.1721 15.2412C23.3483 15.2412 23.5173 15.3112 23.6419 15.4358C23.7664 15.5603 23.8364 15.7293 23.8364 15.9055V21.4471C23.8364 21.6233 23.7664 21.7923 23.6419 21.9168C23.5173 22.0414 23.3483 22.1114 23.1721 22.1114Z" fill="#6D7486"/>
<path d="M30.0941 22.1114C29.918 22.1114 29.749 22.0414 29.6244 21.9168C29.4999 21.7923 29.4299 21.6233 29.4299 21.4471V15.9055C29.4299 15.7293 29.4999 15.5603 29.6244 15.4358C29.749 15.3112 29.918 15.2412 30.0941 15.2412C30.2703 15.2412 30.4393 15.3112 30.5638 15.4358C30.6884 15.5603 30.7584 15.7293 30.7584 15.9055V21.4471C30.7584 21.6233 30.6884 21.7923 30.5638 21.9168C30.4393 22.0414 30.2703 22.1114 30.0941 22.1114Z" fill="#6D7486"/>
<path d="M37.0164 22.1114C36.8402 22.1114 36.6712 22.0414 36.5467 21.9168C36.4221 21.7923 36.3521 21.6233 36.3521 21.4471V15.9055C36.3521 15.7293 36.4221 15.5603 36.5467 15.4358C36.6712 15.3112 36.8402 15.2412 37.0164 15.2412C37.1926 15.2412 37.3615 15.3112 37.4861 15.4358C37.6107 15.5603 37.6806 15.7293 37.6806 15.9055V21.4471C37.6806 21.6233 37.6107 21.7923 37.4861 21.9168C37.3615 22.0414 37.1926 22.1114 37.0164 22.1114Z" fill="#6D7486"/>
<path d="M43.9384 22.1114C43.7622 22.1114 43.5932 22.0414 43.4687 21.9168C43.3441 21.7923 43.2741 21.6233 43.2741 21.4471V15.9055C43.2741 15.7293 43.3441 15.5603 43.4687 15.4358C43.5932 15.3112 43.7622 15.2412 43.9384 15.2412C44.1146 15.2412 44.2835 15.3112 44.4081 15.4358C44.5327 15.5603 44.6026 15.7293 44.6026 15.9055V21.4471C44.6026 21.6233 44.5327 21.7923 44.4081 21.9168C44.2835 22.0414 44.1146 22.1114 43.9384 22.1114Z" fill="#6D7486"/>
<path d="M47.9836 33.4256H31.3769C31.2008 33.4256 31.0318 33.3556 30.9072 33.231C30.7827 33.1064 30.7127 32.9375 30.7127 32.7613C30.7127 32.5851 30.7827 32.4162 30.9072 32.2916C31.0318 32.167 31.2008 32.097 31.3769 32.097H47.9836C48.1598 32.097 48.3288 32.167 48.4534 32.2916C48.5779 32.4162 48.6479 32.5851 48.6479 32.7613C48.6479 32.9375 48.5779 33.1064 48.4534 33.231C48.3288 33.3556 48.1598 33.4256 47.9836 33.4256Z" fill="#8FB1B5"/>
<path d="M23.1831 35.6841C23.0959 35.6842 23.0095 35.6671 22.9289 35.6337C22.8483 35.6003 22.7751 35.5514 22.7135 35.4896L21.6556 34.4316C21.5926 34.3703 21.5423 34.297 21.5078 34.216C21.4733 34.1351 21.4552 34.0481 21.4546 33.9601C21.454 33.8721 21.4709 33.7849 21.5043 33.7035C21.5377 33.6221 21.5869 33.5481 21.6492 33.4859C21.7114 33.4237 21.7853 33.3744 21.8667 33.341C21.9481 33.3076 22.0354 33.2907 22.1234 33.2913C22.2113 33.2919 22.2983 33.31 22.3793 33.3445C22.4602 33.379 22.5335 33.4292 22.5949 33.4923L23.1935 34.0909L24.6694 32.6799C24.7323 32.619 24.8067 32.5711 24.8882 32.539C24.9697 32.507 25.0567 32.4913 25.1442 32.493C25.2318 32.4947 25.3181 32.5137 25.3983 32.5489C25.4785 32.5841 25.551 32.6348 25.6115 32.6981C25.672 32.7614 25.7194 32.836 25.751 32.9177C25.7825 32.9994 25.7976 33.0865 25.7954 33.1741C25.7932 33.2616 25.7737 33.3478 25.738 33.4278C25.7023 33.5078 25.6512 33.5799 25.5875 33.6401L23.6422 35.5C23.5187 35.6184 23.3542 35.6843 23.1831 35.6841Z" fill="#D8FF33"/>
<path d="M47.9836 44.4966H31.3769C31.2008 44.4966 31.0318 44.4266 30.9072 44.3021C30.7827 44.1775 30.7127 44.0085 30.7127 43.8324C30.7127 43.6562 30.7827 43.4872 30.9072 43.3626C31.0318 43.2381 31.2008 43.1681 31.3769 43.1681H47.9836C48.1598 43.1681 48.3288 43.2381 48.4534 43.3626C48.5779 43.4872 48.6479 43.6562 48.6479 43.8324C48.6479 44.0085 48.5779 44.1775 48.4534 44.3021C48.3288 44.4266 48.1598 44.4966 47.9836 44.4966Z" fill="#8FB1B5"/>
<path d="M23.1831 46.7552C23.0959 46.7553 23.0095 46.7381 22.9289 46.7048C22.8483 46.6714 22.7751 46.6224 22.7135 46.5606L21.6556 45.5027C21.5926 45.4413 21.5423 45.368 21.5078 45.2871C21.4733 45.2061 21.4552 45.1192 21.4546 45.0312C21.454 44.9432 21.4709 44.8559 21.5043 44.7745C21.5377 44.6931 21.5869 44.6192 21.6492 44.5569C21.7114 44.4947 21.7853 44.4455 21.8667 44.4121C21.9481 44.3787 22.0354 44.3618 22.1234 44.3624C22.2113 44.363 22.2983 44.381 22.3793 44.4155C22.4602 44.45 22.5335 44.5002 22.5949 44.5633L23.1935 45.1619L24.6694 43.7509C24.7323 43.69 24.8067 43.6421 24.8882 43.6101C24.9697 43.578 25.0567 43.5624 25.1442 43.5641C25.2318 43.5658 25.3181 43.5848 25.3983 43.62C25.4785 43.6552 25.551 43.7059 25.6115 43.7692C25.672 43.8325 25.7194 43.9071 25.751 43.9888C25.7825 44.0704 25.7976 44.1576 25.7954 44.2451C25.7932 44.3326 25.7737 44.4189 25.738 44.4989C25.7023 44.5788 25.6512 44.651 25.5875 44.7111L23.6422 46.571C23.5187 46.6894 23.3542 46.7554 23.1831 46.7552Z" fill="#D8FF33"/>
<path d="M41.9056 55.5678H31.3769C31.2008 55.5678 31.0318 55.4978 30.9072 55.3732C30.7827 55.2487 30.7127 55.0797 30.7127 54.9035C30.7127 54.7274 30.7827 54.5584 30.9072 54.4338C31.0318 54.3092 31.2008 54.2393 31.3769 54.2393H41.9056C42.0818 54.2393 42.2507 54.3092 42.3753 54.4338C42.4999 54.5584 42.5699 54.7274 42.5699 54.9035C42.5699 55.0797 42.4999 55.2487 42.3753 55.3732C42.2507 55.4978 42.0818 55.5678 41.9056 55.5678Z" fill="#8FB1B5"/>
<path d="M23.1831 57.8263C23.0959 57.8264 23.0095 57.8093 22.9289 57.7759C22.8483 57.7425 22.7751 57.6936 22.7135 57.6318L21.6556 56.5739C21.5926 56.5125 21.5423 56.4392 21.5078 56.3583C21.4733 56.2773 21.4552 56.1903 21.4546 56.1023C21.454 56.0143 21.4709 55.9271 21.5043 55.8457C21.5377 55.7643 21.5869 55.6903 21.6492 55.6281C21.7114 55.5659 21.7853 55.5166 21.8667 55.4832C21.9481 55.4498 22.0354 55.4329 22.1234 55.4335C22.2113 55.4341 22.2983 55.4522 22.3793 55.4867C22.4602 55.5212 22.5335 55.5714 22.5949 55.6345L23.1935 56.2331L24.6694 54.8221C24.7323 54.7612 24.8067 54.7133 24.8882 54.6813C24.9697 54.6492 25.0567 54.6336 25.1442 54.6353C25.2318 54.637 25.3181 54.6559 25.3983 54.6911C25.4785 54.7263 25.551 54.777 25.6115 54.8403C25.672 54.9036 25.7194 54.9783 25.751 55.0599C25.7825 55.1416 25.7976 55.2287 25.7954 55.3163C25.7932 55.4038 25.7737 55.4901 25.738 55.57C25.7023 55.65 25.6512 55.7221 25.5875 55.7823L23.6422 57.6422C23.5187 57.7606 23.3542 57.8266 23.1831 57.8263Z" fill="#D8FF33"/>
<path d="M40.2339 35.6398H31.3769C31.2008 35.6398 31.0318 35.5698 30.9072 35.4453C30.7827 35.3207 30.7127 35.1517 30.7127 34.9755C30.7127 34.7994 30.7827 34.6304 30.9072 34.5058C31.0318 34.3813 31.2008 34.3113 31.3769 34.3113H40.2339C40.41 34.3113 40.579 34.3813 40.7036 34.5058C40.8281 34.6304 40.8981 34.7994 40.8981 34.9755C40.8981 35.1517 40.8281 35.3207 40.7036 35.4453C40.579 35.5698 40.41 35.6398 40.2339 35.6398Z" fill="#8FB1B5"/>
<path d="M40.2339 46.7109H31.3769C31.2008 46.7109 31.0318 46.6409 30.9072 46.5163C30.7827 46.3917 30.7127 46.2228 30.7127 46.0466C30.7127 45.8704 30.7827 45.7015 30.9072 45.5769C31.0318 45.4523 31.2008 45.3823 31.3769 45.3823H40.2339C40.41 45.3823 40.579 45.4523 40.7036 45.5769C40.8281 45.7015 40.8981 45.8704 40.8981 46.0466C40.8981 46.2228 40.8281 46.3917 40.7036 46.5163C40.579 46.6409 40.41 46.7109 40.2339 46.7109Z" fill="#8FB1B5"/>
<path d="M40.2339 57.782H31.3769C31.2008 57.782 31.0318 57.712 30.9072 57.5875C30.7827 57.4629 30.7127 57.2939 30.7127 57.1178C30.7127 56.9416 30.7827 56.7726 30.9072 56.6481C31.0318 56.5235 31.2008 56.4535 31.3769 56.4535H40.2339C40.41 56.4535 40.579 56.5235 40.7036 56.6481C40.8281 56.7726 40.8981 56.9416 40.8981 57.1178C40.8981 57.2939 40.8281 57.4629 40.7036 57.5875C40.579 57.712 40.41 57.782 40.2339 57.782Z" fill="#8FB1B5"/>
<path d="M18.2134 24.6536C18.0372 24.6536 17.8682 24.5836 17.7437 24.459C17.6191 24.3344 17.5491 24.1655 17.5491 23.9893V23.2918C17.5491 23.1157 17.6191 22.9467 17.7437 22.8221C17.8682 22.6975 18.0372 22.6276 18.2134 22.6276C18.3895 22.6276 18.5585 22.6975 18.6831 22.8221C18.8077 22.9467 18.8776 23.1157 18.8776 23.2918V23.9893C18.8776 24.1655 18.8077 24.3344 18.6831 24.459C18.5585 24.5836 18.3895 24.6536 18.2134 24.6536Z" fill="#F4F8FC"/>
<path d="M18.2134 33.1784C18.0372 33.1784 17.8682 33.1084 17.7437 32.9838C17.6191 32.8592 17.5491 32.6903 17.5491 32.5141V26.0929C17.5491 25.9167 17.6191 25.7477 17.7437 25.6231C17.8682 25.4986 18.0372 25.4286 18.2134 25.4286C18.3895 25.4286 18.5585 25.4986 18.6831 25.6231C18.8077 25.7477 18.8776 25.9167 18.8776 26.0929V32.5141C18.8776 32.6903 18.8077 32.8592 18.6831 32.9838C18.5585 33.1084 18.3895 33.1784 18.2134 33.1784Z" fill="#F4F8FC"/>
<path d="M61.3399 45.3862L43.4943 57.105L45.0277 59.4377L62.8721 47.7189L61.3399 45.3862Z" fill="#E75163"/>
<path d="M41.9681 54.7726L59.8162 43.0518L61.3492 45.3863L43.5012 57.1071L41.9681 54.7726Z" fill="#FB6771"/>
<path d="M41.9609 54.7712L41.8901 54.9041L39.4135 59.585L45.0277 59.4377L41.9609 54.7712Z" fill="#C79A83"/>
</svg>
