<svg width="80" height="81" viewBox="0 0 80 81" fill="none" xmlns="http://www.w3.org/2000/svg">
<rect x="-0.000244141" y="0.0830078" width="80" height="80" rx="10" fill="#BDEFFF"/>
<path d="M40.9256 52.1202H33.0416C31.5682 52.1202 30.1551 52.7055 29.1132 53.7474L27.0367 55.8239L31.6664 60.4536L33.9018 58.2182C34.2491 57.8708 34.7201 57.6758 35.2113 57.6758H40.9256C42.4598 57.6758 43.7034 56.4322 43.7034 54.898C43.7034 53.3639 42.4598 52.1202 40.9256 52.1202Z" fill="#FAB991"/>
<path d="M54.2721 50.8108C53.5489 50.0875 52.3763 50.0875 51.6532 50.8108L44.7883 57.6758H35.2113C34.7202 57.6758 34.2491 57.8709 33.9018 58.2182L31.6664 60.4536L34.4442 63.2314L36.296 61.3795H45.1718C45.9138 61.3795 46.6114 61.0905 47.1359 60.5659L54.2722 53.4296C54.9953 52.7065 54.9953 51.534 54.2721 50.8108Z" fill="#F0915A"/>
<path d="M40.9257 56.4411H40.3084C39.7971 56.4411 39.3825 56.0265 39.3825 55.5151V54.2805C39.3825 53.7692 39.7971 53.3546 40.3084 53.3546H40.9257C41.778 53.3546 42.4688 54.0456 42.4688 54.8978C42.4688 55.7502 41.778 56.4411 40.9257 56.4411Z" fill="#F0915A"/>
<path d="M26.7656 55.5529L31.6664 60.4537L27.0368 65.0834H15.9257L25.4561 55.5529C25.8177 55.1913 26.404 55.1913 26.7656 55.5529Z" fill="#555A6E"/>
<path d="M31.6664 60.4534L34.7153 63.5023C35.0769 63.8639 35.0769 64.4502 34.7153 64.8118L34.4442 65.083H27.0367L31.6664 60.4534Z" fill="#463C4B"/>
<path d="M25.1849 15.083H15.9257C14.4793 16.5294 13.6684 17.3403 12.222 18.7867V31.7497C12.222 32.7725 13.051 33.6015 14.0738 33.6015H25.1849C26.2077 33.6015 27.0368 32.7725 27.0368 31.7497V16.9349C27.0368 15.9121 26.2077 15.083 25.1849 15.083Z" fill="#FF6E91"/>
<path d="M15.9257 15.083L12.222 18.7867H14.0738C15.0966 18.7867 15.9257 17.9577 15.9257 16.9349V15.083Z" fill="#E64178"/>
<path d="M24.259 22.4903H14.9998C14.4884 22.4903 14.0739 22.0757 14.0739 21.5644C14.0739 21.053 14.4884 20.6384 14.9998 20.6384H24.259C24.7704 20.6384 25.185 21.053 25.185 21.5644C25.185 22.0757 24.7704 22.4903 24.259 22.4903Z" fill="#E64178"/>
<path d="M24.259 26.1941H14.9998C14.4884 26.1941 14.0739 25.7796 14.0739 25.2682C14.0739 24.7569 14.4884 24.3423 14.9998 24.3423H24.259C24.7704 24.3423 25.185 24.7569 25.185 25.2682C25.185 25.7796 24.7704 26.1941 24.259 26.1941Z" fill="#E64178"/>
<path d="M20.5553 29.8979H14.9998C14.4884 29.8979 14.0739 29.4833 14.0739 28.9719C14.0739 28.4606 14.4884 28.046 14.9998 28.046H20.5553C21.0667 28.046 21.4813 28.4606 21.4813 28.9719C21.4813 29.4833 21.0667 29.8979 20.5553 29.8979Z" fill="#E64178"/>
<path d="M45.5553 15.083H36.296C34.8496 16.5294 34.0388 17.3403 32.5923 18.7867V31.7497C32.5923 32.7725 33.4214 33.6015 34.4442 33.6015H45.5553C46.5781 33.6015 47.4072 32.7725 47.4072 31.7497V16.9349C47.4072 15.9121 46.5781 15.083 45.5553 15.083Z" fill="#5AD7FF"/>
<path d="M36.296 15.083L32.5923 18.7867H34.4442C35.467 18.7867 36.296 17.9577 36.296 16.9349V15.083Z" fill="#2387C3"/>
<path d="M44.6294 22.4903H35.3701C34.8588 22.4903 34.4442 22.0757 34.4442 21.5644C34.4442 21.053 34.8588 20.6384 35.3701 20.6384H44.6294C45.1407 20.6384 45.5553 21.053 45.5553 21.5644C45.5553 22.0757 45.1407 22.4903 44.6294 22.4903Z" fill="#2387C3"/>
<path d="M44.6294 26.1941H35.3701C34.8588 26.1941 34.4442 25.7796 34.4442 25.2682C34.4442 24.7569 34.8588 24.3423 35.3701 24.3423H44.6294C45.1407 24.3423 45.5553 24.7569 45.5553 25.2682C45.5553 25.7796 45.1407 26.1941 44.6294 26.1941Z" fill="#2387C3"/>
<path d="M40.9257 29.8979H35.3701C34.8588 29.8979 34.4442 29.4833 34.4442 28.9719C34.4442 28.4606 34.8588 28.046 35.3701 28.046H40.9257C41.437 28.046 41.8516 28.4606 41.8516 28.9719C41.8516 29.4833 41.437 29.8979 40.9257 29.8979Z" fill="#2387C3"/>
<path d="M65.9257 15.083H56.6664C55.22 16.5294 54.4091 17.3403 52.9627 18.7867V31.7497C52.9627 32.7725 53.7918 33.6015 54.8146 33.6015H65.9257C66.9485 33.6015 67.7775 32.7725 67.7775 31.7497V16.9349C67.7775 15.9121 66.9485 15.083 65.9257 15.083Z" fill="#D7E6F0"/>
<path d="M56.6664 15.083L52.9627 18.7867H54.8146C55.8374 18.7867 56.6664 17.9577 56.6664 16.9349V15.083Z" fill="#A5C3DC"/>
<path d="M64.9998 22.4903H55.7405C55.2292 22.4903 54.8146 22.0757 54.8146 21.5644C54.8146 21.053 55.2292 20.6384 55.7405 20.6384H64.9998C65.5111 20.6384 65.9257 21.053 65.9257 21.5644C65.9257 22.0757 65.5111 22.4903 64.9998 22.4903Z" fill="#A5C3DC"/>
<path d="M64.9998 26.1941H55.7405C55.2292 26.1941 54.8146 25.7796 54.8146 25.2682C54.8146 24.7569 55.2292 24.3423 55.7405 24.3423H64.9998C65.5111 24.3423 65.9257 24.7569 65.9257 25.2682C65.9257 25.7796 65.5111 26.1941 64.9998 26.1941Z" fill="#A5C3DC"/>
<path d="M61.2961 29.8979H55.7405C55.2292 29.8979 54.8146 29.4833 54.8146 28.9719C54.8146 28.4606 55.2292 28.046 55.7405 28.046H61.2961C61.8074 28.046 62.222 28.4606 62.222 28.9719C62.222 29.4833 61.8074 29.8979 61.2961 29.8979Z" fill="#A5C3DC"/>
<path d="M59.4442 33.6016V35.4534C59.4442 36.985 58.198 38.2312 56.6664 38.2312H51.1109C48.5581 38.2312 46.4813 40.308 46.4813 42.8608V43.7867H45.5553C45.1808 43.7867 44.8432 44.0123 44.6999 44.3583C44.5566 44.7042 44.6358 45.1025 44.9006 45.3673L46.7524 47.2192C46.9332 47.3999 47.1702 47.4903 47.4072 47.4903C47.6442 47.4903 47.8811 47.3999 48.0619 47.2192L49.9138 45.3673C50.1786 45.1025 50.2579 44.7042 50.1145 44.3583C49.9711 44.0123 49.6336 43.7867 49.259 43.7867H48.3331V42.8608C48.3331 41.3292 49.5793 40.083 51.1109 40.083H56.6664C59.2192 40.083 61.2961 38.0062 61.2961 35.4534V33.6016H59.4442Z" fill="#555A6E"/>
<path d="M35.2997 44.3583C35.1564 44.0123 34.8188 43.7867 34.4442 43.7867H33.5183V42.8608C33.5183 40.308 31.4415 38.2312 28.8887 38.2312H23.3331C21.8015 38.2312 20.5553 36.985 20.5553 35.4534V33.6016H18.7035V35.4534C18.7035 38.0062 20.7803 40.083 23.3331 40.083H28.8887C30.4203 40.083 31.6665 41.3292 31.6665 42.8608V43.7867H30.7405C30.366 43.7867 30.0284 44.0123 29.8851 44.3583C29.7418 44.7042 29.821 45.1025 30.0858 45.3673L31.9376 47.2192C32.1184 47.3999 32.3553 47.4903 32.5924 47.4903C32.8294 47.4903 33.0663 47.3999 33.2471 47.2192L35.099 45.3673C35.3638 45.1026 35.443 44.7043 35.2997 44.3583Z" fill="#555A6E"/>
<path d="M42.7071 48.062C42.5638 47.716 42.2262 47.4905 41.8516 47.4905H40.9257V33.6016H39.0739V47.4905H38.1479C37.7734 47.4905 37.4358 47.716 37.2925 48.062C37.1492 48.4079 37.2284 48.8062 37.4932 49.071L39.345 50.9229C39.5258 51.1036 39.7627 51.194 39.9998 51.194C40.2368 51.194 40.4737 51.1036 40.6545 50.9229L42.5064 49.071C42.7712 48.8063 42.8504 48.408 42.7071 48.062Z" fill="#555A6E"/>
</svg>
