<svg width="80" height="81" viewBox="0 0 80 81" fill="none" xmlns="http://www.w3.org/2000/svg">
<rect x="-0.000244141" y="0.378418" width="80" height="80" rx="10" fill="#AEFFC5"/>
<path d="M39.9997 61.0681C39.7711 61.0681 39.5518 60.9772 39.3902 60.8156C39.2285 60.6539 39.1377 60.4346 39.1377 60.206V55.0336C39.1377 54.8049 39.2285 54.5857 39.3902 54.424C39.5518 54.2623 39.7711 54.1715 39.9997 54.1715C40.2284 54.1715 40.4476 54.2623 40.6093 54.424C40.771 54.5857 40.8618 54.8049 40.8618 55.0336V60.206C40.8618 60.4346 40.771 60.6539 40.6093 60.8156C40.4476 60.9772 40.2284 61.0681 39.9997 61.0681Z" fill="#505860"/>
<path d="M52.0687 61.0681C51.9552 61.0688 51.8428 61.047 51.7377 61.0041C51.6327 60.9612 51.5372 60.898 51.4566 60.8181L47.1463 56.5077C47.0664 56.4272 47.0032 56.3317 46.9603 56.2266C46.9174 56.1216 46.8956 56.0091 46.8963 55.8957V51.5853C46.8963 51.3567 46.9871 51.1374 47.1488 50.9758C47.3104 50.8141 47.5297 50.7233 47.7584 50.7233C47.987 50.7233 48.2063 50.8141 48.3679 50.9758C48.5296 51.1374 48.6204 51.3567 48.6204 51.5853V55.5422L52.6808 59.594C52.7616 59.6741 52.8257 59.7694 52.8695 59.8745C52.9132 59.9795 52.9358 60.0922 52.9358 60.206C52.9358 60.3198 52.9132 60.4325 52.8695 60.5376C52.8257 60.6426 52.7616 60.738 52.6808 60.8181C52.6002 60.898 52.5047 60.9612 52.3997 61.0041C52.2946 61.047 52.1822 61.0688 52.0687 61.0681Z" fill="#505860"/>
<path d="M27.9308 61.0681C27.8173 61.0688 27.7049 61.047 27.5998 61.0041C27.4948 60.9612 27.3993 60.898 27.3187 60.8181C27.2379 60.738 27.1738 60.6426 27.13 60.5376C27.0863 60.4325 27.0637 60.3198 27.0637 60.206C27.0637 60.0922 27.0863 59.9795 27.13 59.8745C27.1738 59.7694 27.2379 59.6741 27.3187 59.594L31.3791 55.5422V51.5853C31.3791 51.3567 31.4699 51.1374 31.6316 50.9758C31.7932 50.8141 32.0125 50.7233 32.2411 50.7233C32.4698 50.7233 32.689 50.8141 32.8507 50.9758C33.0124 51.1374 33.1032 51.3567 33.1032 51.5853V55.8957C33.1039 56.0091 33.0821 56.1216 33.0392 56.2266C32.9963 56.3317 32.9331 56.4272 32.8532 56.5077L28.5429 60.8181C28.4623 60.898 28.3668 60.9612 28.2617 61.0041C28.1567 61.047 28.0442 61.0688 27.9308 61.0681Z" fill="#505860"/>
<path d="M39.9997 26.5853C39.7711 26.5853 39.5518 26.4944 39.3902 26.3328C39.2285 26.1711 39.1377 25.9518 39.1377 25.7232V20.5508C39.1377 20.3222 39.2285 20.1029 39.3902 19.9412C39.5518 19.7795 39.7711 19.6887 39.9997 19.6887C40.2284 19.6887 40.4476 19.7795 40.6093 19.9412C40.771 20.1029 40.8618 20.3222 40.8618 20.5508V25.7232C40.8618 25.9518 40.771 26.1711 40.6093 26.3328C40.4476 26.4944 40.2284 26.5853 39.9997 26.5853Z" fill="#505860"/>
<path d="M47.7584 30.0335C47.5297 30.0335 47.3104 29.9427 47.1488 29.781C46.9871 29.6194 46.8963 29.4001 46.8963 29.1715V24.8611C46.8956 24.7477 46.9174 24.6352 46.9603 24.5302C47.0032 24.4251 47.0664 24.3296 47.1463 24.2491L51.4566 19.9387C51.619 19.7764 51.8391 19.6852 52.0687 19.6852C52.2983 19.6852 52.5184 19.7764 52.6808 19.9387C52.8431 20.101 52.9343 20.3212 52.9343 20.5508C52.9343 20.7803 52.8431 21.0005 52.6808 21.1628L48.6204 25.2146V29.1715C48.6204 29.4001 48.5296 29.6194 48.3679 29.781C48.2063 29.9427 47.987 30.0335 47.7584 30.0335Z" fill="#505860"/>
<path d="M32.2411 30.0335C32.0125 30.0335 31.7932 29.9427 31.6316 29.781C31.4699 29.6194 31.3791 29.4001 31.3791 29.1715V25.2146L27.3187 21.1628C27.2383 21.0825 27.1746 20.987 27.1311 20.882C27.0876 20.777 27.0652 20.6644 27.0652 20.5508C27.0652 20.3212 27.1564 20.101 27.3187 19.9387C27.481 19.7764 27.7012 19.6852 27.9308 19.6852C28.0445 19.6852 28.157 19.7076 28.262 19.7511C28.367 19.7946 28.4625 19.8583 28.5428 19.9387L32.8532 24.2491C32.9331 24.3296 32.9963 24.4251 33.0392 24.5302C33.0821 24.6352 33.1039 24.7477 33.1032 24.8611V29.1715C33.1032 29.4001 33.0124 29.6194 32.8507 29.781C32.689 29.9427 32.4698 30.0335 32.2411 30.0335Z" fill="#505860"/>
<path d="M16.7239 28.3094H20.1722V31.7577H16.7239V28.3094Z" fill="#333F47"/>
<path d="M59.8273 55.8956H63.2756V59.3439H59.8273V55.8956Z" fill="#333F47"/>
<path d="M27.0687 36.9302H19.3101C19.0815 36.9302 18.8622 36.8394 18.7005 36.6777C18.5389 36.516 18.448 36.2968 18.448 36.0681C18.448 35.8395 18.5389 35.6202 18.7005 35.4585C18.8622 35.2969 19.0815 35.2061 19.3101 35.2061H27.0687C27.2974 35.2061 27.5166 35.2969 27.6783 35.4585C27.84 35.6202 27.9308 35.8395 27.9308 36.0681C27.9308 36.2968 27.84 36.516 27.6783 36.6777C27.5166 36.8394 27.2974 36.9302 27.0687 36.9302Z" fill="#505860"/>
<path d="M27.0687 45.5508H19.3101C19.0815 45.5508 18.8622 45.46 18.7005 45.2983C18.5389 45.1366 18.448 44.9174 18.448 44.6887C18.448 44.4601 18.5389 44.2408 18.7005 44.0792C18.8622 43.9175 19.0815 43.8267 19.3101 43.8267H27.0687C27.2974 43.8267 27.5166 43.9175 27.6783 44.0792C27.84 44.2408 27.9308 44.4601 27.9308 44.6887C27.9308 44.9174 27.84 45.1366 27.6783 45.2983C27.5166 45.46 27.2974 45.5508 27.0687 45.5508Z" fill="#505860"/>
<path d="M60.6894 36.9302H52.9308C52.7021 36.9302 52.4829 36.8394 52.3212 36.6777C52.1595 36.516 52.0687 36.2968 52.0687 36.0681C52.0687 35.8395 52.1595 35.6202 52.3212 35.4585C52.4829 35.2969 52.7021 35.2061 52.9308 35.2061H60.6894C60.918 35.2061 61.1373 35.2969 61.299 35.4585C61.4606 35.6202 61.5515 35.8395 61.5515 36.0681C61.5515 36.2968 61.4606 36.516 61.299 36.6777C61.1373 36.8394 60.918 36.9302 60.6894 36.9302Z" fill="#505860"/>
<path d="M60.6894 45.5508H52.9308C52.7021 45.5508 52.4829 45.46 52.3212 45.2983C52.1595 45.1366 52.0687 44.9174 52.0687 44.6887C52.0687 44.4601 52.1595 44.2408 52.3212 44.0792C52.4829 43.9175 52.7021 43.8267 52.9308 43.8267H60.6894C60.918 43.8267 61.1373 43.9175 61.299 44.0792C61.4606 44.2408 61.5515 44.4601 61.5515 44.6887C61.5515 44.9174 61.4606 45.1366 61.299 45.2983C61.1373 45.46 60.918 45.5508 60.6894 45.5508Z" fill="#505860"/>
<path d="M39.9998 65.3785C41.4281 65.3785 42.586 64.2206 42.586 62.7923C42.586 61.3639 41.4281 60.2061 39.9998 60.2061C38.5714 60.2061 37.4135 61.3639 37.4135 62.7923C37.4135 64.2206 38.5714 65.3785 39.9998 65.3785Z" fill="#F7636D"/>
<path d="M52.0687 62.7922C53.497 62.7922 54.6549 61.6343 54.6549 60.206C54.6549 58.7776 53.497 57.6198 52.0687 57.6198C50.6404 57.6198 49.4825 58.7776 49.4825 60.206C49.4825 61.6343 50.6404 62.7922 52.0687 62.7922Z" fill="#F7636D"/>
<path d="M27.9308 62.7922C29.3591 62.7922 30.517 61.6343 30.517 60.206C30.517 58.7776 29.3591 57.6198 27.9308 57.6198C26.5025 57.6198 25.3446 58.7776 25.3446 60.206C25.3446 61.6343 26.5025 62.7922 27.9308 62.7922Z" fill="#F7636D"/>
<path d="M39.9998 20.5508C41.4281 20.5508 42.586 19.3929 42.586 17.9646C42.586 16.5363 41.4281 15.3784 39.9998 15.3784C38.5714 15.3784 37.4135 16.5363 37.4135 17.9646C37.4135 19.3929 38.5714 20.5508 39.9998 20.5508Z" fill="#F7636D"/>
<path d="M52.0687 23.137C53.497 23.137 54.6549 21.9791 54.6549 20.5508C54.6549 19.1225 53.497 17.9646 52.0687 17.9646C50.6404 17.9646 49.4825 19.1225 49.4825 20.5508C49.4825 21.9791 50.6404 23.137 52.0687 23.137Z" fill="#F7636D"/>
<path d="M27.9308 23.137C29.3591 23.137 30.517 21.9791 30.517 20.5508C30.517 19.1225 29.3591 17.9646 27.9308 17.9646C26.5025 17.9646 25.3446 19.1225 25.3446 20.5508C25.3446 21.9791 26.5025 23.137 27.9308 23.137Z" fill="#F7636D"/>
<path d="M19.3101 38.6542C20.7384 38.6542 21.8963 37.4963 21.8963 36.068C21.8963 34.6397 20.7384 33.4818 19.3101 33.4818C17.8818 33.4818 16.7239 34.6397 16.7239 36.068C16.7239 37.4963 17.8818 38.6542 19.3101 38.6542Z" fill="#F7636D"/>
<path d="M19.3101 47.275C20.7384 47.275 21.8963 46.1171 21.8963 44.6887C21.8963 43.2604 20.7384 42.1025 19.3101 42.1025C17.8818 42.1025 16.7239 43.2604 16.7239 44.6887C16.7239 46.1171 17.8818 47.275 19.3101 47.275Z" fill="#F7636D"/>
<path d="M60.6894 38.6542C62.1177 38.6542 63.2756 37.4963 63.2756 36.068C63.2756 34.6397 62.1177 33.4818 60.6894 33.4818C59.2611 33.4818 58.1032 34.6397 58.1032 36.068C58.1032 37.4963 59.2611 38.6542 60.6894 38.6542Z" fill="#F7636D"/>
<path d="M60.6894 47.275C62.1177 47.275 63.2756 46.1171 63.2756 44.6887C63.2756 43.2604 62.1177 42.1025 60.6894 42.1025C59.2611 42.1025 58.1032 43.2604 58.1032 44.6887C58.1032 46.1171 59.2611 47.275 60.6894 47.275Z" fill="#F7636D"/>
<path d="M27.0687 34.4043V46.3526C27.0693 46.9573 27.2289 47.5512 27.5316 48.0747C27.8342 48.5982 28.2691 49.033 28.7928 49.3353L38.3187 54.6112C38.8241 54.8858 39.3901 55.0297 39.9652 55.0297C40.5404 55.0297 41.1064 54.8858 41.6118 54.6112L51.2066 49.3353C51.7303 49.033 52.1653 48.5982 52.4679 48.0747C52.7705 47.5512 52.9301 46.9573 52.9308 46.3526V34.4043C52.9301 33.7996 52.7705 33.2057 52.4679 32.6822C52.1653 32.1586 51.7303 31.7239 51.2066 31.4215L41.6463 26.1457C41.1409 25.871 40.5749 25.7272 39.9997 25.7272C39.4246 25.7272 38.8585 25.871 38.3532 26.1457L28.7928 31.4215C28.2691 31.7239 27.8342 32.1586 27.5316 32.6822C27.2289 33.2057 27.0693 33.7996 27.0687 34.4043Z" fill="#F7D079"/>
<path d="M44.2325 51.1629C43.7271 51.4375 43.1611 51.5814 42.5859 51.5814C42.0108 51.5814 41.4447 51.4375 40.9394 51.1629L31.379 45.887C30.8554 45.5847 30.4204 45.1499 30.1178 44.6264C29.8151 44.1029 29.6555 43.509 29.6549 42.9043V30.9646L28.7928 31.4215C28.2691 31.7238 27.8342 32.1586 27.5316 32.6821C27.2289 33.2057 27.0693 33.7996 27.0687 34.4043V46.3525C27.0693 46.9572 27.2289 47.5511 27.5316 48.0747C27.8342 48.5982 28.2691 49.0329 28.7928 49.3353L38.3187 54.6111C38.8241 54.8858 39.3901 55.0297 39.9652 55.0297C40.5404 55.0297 41.1064 54.8858 41.6118 54.6111L51.2066 49.3353C51.7303 49.0329 52.1653 48.5982 52.4679 48.0747C52.7705 47.5511 52.9301 46.9572 52.9308 46.3525L44.2325 51.1629Z" fill="#F9B15A"/>
<path d="M36.5515 36.9302V43.8267C36.5515 44.0554 36.4606 44.2746 36.299 44.4363C36.1373 44.598 35.918 44.6888 35.6894 44.6888C35.5389 44.6879 35.3914 44.6476 35.2613 44.572C35.1312 44.4964 35.0232 44.3881 34.948 44.2578L31.379 39.5164V43.8267C31.379 44.0554 31.2882 44.2746 31.1266 44.4363C30.9649 44.598 30.7456 44.6888 30.517 44.6888C30.2883 44.6888 30.0691 44.598 29.9074 44.4363C29.7457 44.2746 29.6549 44.0554 29.6549 43.8267V36.9302C29.6549 36.7015 29.7457 36.4823 29.9074 36.3206C30.0691 36.1589 30.2883 36.0681 30.517 36.0681C30.6674 36.069 30.815 36.1093 30.9451 36.1849C31.0751 36.2605 31.1831 36.3689 31.2584 36.4991L34.8273 41.2405V36.9302C34.8273 36.7015 34.9181 36.4823 35.0798 36.3206C35.2415 36.1589 35.4608 36.0681 35.6894 36.0681C35.918 36.0681 36.1373 36.1589 36.299 36.3206C36.4606 36.4823 36.5515 36.7015 36.5515 36.9302Z" fill="#F2F2F2"/>
<path d="M42.5859 37.7923C42.8146 37.7923 43.0339 37.7014 43.1955 37.5398C43.3572 37.3781 43.448 37.1588 43.448 36.9302C43.448 36.7015 43.3572 36.4823 43.1955 36.3206C43.0339 36.1589 42.8146 36.0681 42.5859 36.0681H39.1377C38.909 36.0681 38.6898 36.1589 38.5281 36.3206C38.3664 36.4823 38.2756 36.7015 38.2756 36.9302V43.8267C38.2756 44.0554 38.3664 44.2746 38.5281 44.4363C38.6898 44.598 38.909 44.6888 39.1377 44.6888C39.3663 44.6888 39.5856 44.598 39.7472 44.4363C39.9089 44.2746 39.9997 44.0554 39.9997 43.8267V41.2405H42.5859C42.8146 41.2405 43.0339 41.1497 43.1955 40.988C43.3572 40.8264 43.448 40.6071 43.448 40.3785C43.448 40.1498 43.3572 39.9306 43.1955 39.7689C43.0339 39.6072 42.8146 39.5164 42.5859 39.5164H39.9997V37.7923H42.5859Z" fill="#F2F2F2"/>
<path d="M49.4825 36.0681H46.0342C45.8056 36.0681 45.5863 36.1589 45.4246 36.3206C45.263 36.4823 45.1721 36.7015 45.1721 36.9302C45.1721 37.1588 45.263 37.3781 45.4246 37.5398C45.5863 37.7014 45.8056 37.7923 46.0342 37.7923H46.8963V43.8267C46.8963 44.0554 46.9871 44.2746 47.1488 44.4363C47.3105 44.598 47.5297 44.6888 47.7584 44.6888C47.987 44.6888 48.2063 44.598 48.3679 44.4363C48.5296 44.2746 48.6204 44.0554 48.6204 43.8267V37.7923H49.4825C49.7111 37.7923 49.9304 37.7014 50.0921 37.5398C50.2537 37.3781 50.3446 37.1588 50.3446 36.9302C50.3446 36.7015 50.2537 36.4823 50.0921 36.3206C49.9304 36.1589 49.7111 36.0681 49.4825 36.0681Z" fill="#F2F2F2"/>
</svg>
