<svg width="131" height="53" viewBox="0 0 131 53" fill="none" xmlns="http://www.w3.org/2000/svg">
<path d="M52.2116 20.3753C50.8249 20.3753 49.6249 20.0753 48.6116 19.4753C47.6116 18.8619 46.8382 18.0153 46.2916 16.9353C45.7449 15.8419 45.4716 14.5819 45.4716 13.1553C45.4716 11.7153 45.7449 10.4553 46.2916 9.37525C46.8382 8.28192 47.6116 7.42859 48.6116 6.81525C49.6249 6.20192 50.8249 5.89525 52.2116 5.89525C53.8516 5.89525 55.1916 6.29525 56.2316 7.09525C57.2716 7.89525 57.9316 9.01525 58.2116 10.4553H55.8516C55.6649 9.64192 55.2649 8.99525 54.6516 8.51525C54.0382 8.03525 53.2182 7.79525 52.1916 7.79525C50.7916 7.79525 49.6849 8.27525 48.8716 9.23525C48.0582 10.1819 47.6516 11.4886 47.6516 13.1553C47.6516 14.8086 48.0582 16.1086 48.8716 17.0553C49.6849 18.0019 50.7916 18.4753 52.1916 18.4753C53.2182 18.4753 54.0382 18.2486 54.6516 17.7953C55.2649 17.3419 55.6649 16.7219 55.8516 15.9353H58.2116C57.9316 17.3219 57.2716 18.4086 56.2316 19.1953C55.1916 19.9819 53.8516 20.3753 52.2116 20.3753ZM59.388 20.1353L64.548 6.13525H66.868L71.988 20.1353H69.748L68.548 16.7153H62.828L61.628 20.1353H59.388ZM63.428 15.0353H67.948L65.688 8.65525L63.428 15.0353ZM78.5603 20.3753C77.5337 20.3753 76.6337 20.1953 75.8603 19.8353C75.087 19.4753 74.4803 18.9619 74.0403 18.2953C73.6137 17.6286 73.3937 16.8353 73.3803 15.9153H75.6203C75.6337 16.6619 75.8937 17.2953 76.4003 17.8153C76.907 18.3353 77.6203 18.5953 78.5403 18.5953C79.3537 18.5953 79.987 18.4019 80.4403 18.0153C80.907 17.6153 81.1403 17.1086 81.1403 16.4953C81.1403 16.0019 81.027 15.6019 80.8003 15.2953C80.587 14.9886 80.287 14.7353 79.9003 14.5353C79.527 14.3353 79.0937 14.1553 78.6003 13.9953C78.107 13.8353 77.587 13.6619 77.0403 13.4753C75.9603 13.1153 75.147 12.6486 74.6003 12.0753C74.067 11.5019 73.8003 10.7486 73.8003 9.81525C73.787 9.02859 73.967 8.34192 74.3403 7.75525C74.727 7.16859 75.2603 6.71525 75.9403 6.39525C76.6337 6.06192 77.4403 5.89525 78.3603 5.89525C79.267 5.89525 80.0603 6.06192 80.7403 6.39525C81.4337 6.72859 81.9737 7.19525 82.3603 7.79525C82.747 8.38192 82.947 9.06859 82.9603 9.85525H80.7203C80.7203 9.49525 80.627 9.15525 80.4403 8.83525C80.2537 8.50192 79.9803 8.22859 79.6203 8.01525C79.2603 7.80192 78.8203 7.69525 78.3003 7.69525C77.6337 7.68192 77.0803 7.84859 76.6403 8.19525C76.2137 8.54192 76.0003 9.02192 76.0003 9.63525C76.0003 10.1819 76.1603 10.6019 76.4803 10.8953C76.8003 11.1886 77.2403 11.4353 77.8003 11.6353C78.3603 11.8219 79.0003 12.0419 79.7203 12.2953C80.4137 12.5219 81.0337 12.7953 81.5803 13.1153C82.127 13.4353 82.5603 13.8553 82.8803 14.3753C83.2137 14.8953 83.3803 15.5553 83.3803 16.3553C83.3803 17.0619 83.2003 17.7219 82.8403 18.3353C82.4803 18.9353 81.9403 19.4286 81.2203 19.8153C80.5003 20.1886 79.6137 20.3753 78.5603 20.3753ZM84.7981 20.1353L89.9581 6.13525H92.2781L97.3981 20.1353H95.1581L93.9581 16.7153H88.2381L87.0381 20.1353H84.7981ZM88.8381 15.0353H93.3581L91.0981 8.65525L88.8381 15.0353ZM13.8134 46.1353V32.1353H16.3134L21.0534 41.4553L25.7734 32.1353H28.2734V46.1353H26.1534V35.7953L21.8734 44.1353H20.2334L15.9334 35.8153V46.1353H13.8134ZM34.3981 46.3753C33.5581 46.3753 32.8647 46.2353 32.3181 45.9553C31.7714 45.6753 31.3647 45.3086 31.0981 44.8553C30.8314 44.3886 30.6981 43.8819 30.6981 43.3353C30.6981 42.3753 31.0714 41.6153 31.8181 41.0553C32.5647 40.4953 33.6314 40.2153 35.0181 40.2153H37.6181V40.0353C37.6181 39.2619 37.4047 38.6819 36.9781 38.2953C36.5647 37.9086 36.0247 37.7153 35.3581 37.7153C34.7714 37.7153 34.2581 37.8619 33.8181 38.1553C33.3914 38.4353 33.1314 38.8553 33.0381 39.4153H30.9181C30.9847 38.6953 31.2247 38.0819 31.6381 37.5753C32.0647 37.0553 32.5981 36.6619 33.2381 36.3953C33.8914 36.1153 34.6047 35.9753 35.3781 35.9753C36.7647 35.9753 37.8381 36.3419 38.5981 37.0753C39.3581 37.7953 39.7381 38.7819 39.7381 40.0353V46.1353H37.8981L37.7181 44.4353C37.4381 44.9819 37.0314 45.4419 36.4981 45.8153C35.9647 46.1886 35.2647 46.3753 34.3981 46.3753ZM34.8181 44.6553C35.3914 44.6553 35.8714 44.5219 36.2581 44.2553C36.6581 43.9753 36.9647 43.6086 37.1781 43.1553C37.4047 42.7019 37.5447 42.2019 37.5981 41.6553H35.2381C34.3981 41.6553 33.7981 41.8019 33.4381 42.0953C33.0914 42.3886 32.9181 42.7553 32.9181 43.1953C32.9181 43.6486 33.0847 44.0086 33.4181 44.2753C33.7647 44.5286 34.2314 44.6553 34.8181 44.6553ZM42.2099 46.1353V36.2153H44.1099L44.2899 38.0953C44.6366 37.4419 45.1166 36.9286 45.7299 36.5553C46.3566 36.1686 47.1099 35.9753 47.9899 35.9753V38.1953H47.4099C46.8233 38.1953 46.2966 38.2953 45.8299 38.4953C45.3766 38.6819 45.0099 39.0086 44.7299 39.4753C44.4633 39.9286 44.3299 40.5619 44.3299 41.3753V46.1353H42.2099ZM49.8076 46.1353V31.7353H51.9276V40.3153L55.7276 36.2153H58.2676L54.0476 40.7153L58.8876 46.1353H56.2076L51.9276 41.0553V46.1353H49.8076ZM64.4085 46.3753C63.4352 46.3753 62.5685 46.1619 61.8085 45.7353C61.0619 45.2953 60.4752 44.6886 60.0485 43.9153C59.6219 43.1419 59.4085 42.2419 59.4085 41.2153C59.4085 40.1753 59.6152 39.2619 60.0285 38.4753C60.4552 37.6886 61.0419 37.0753 61.7885 36.6353C62.5485 36.1953 63.4285 35.9753 64.4285 35.9753C65.4019 35.9753 66.2485 36.1953 66.9685 36.6353C67.6885 37.0619 68.2485 37.6353 68.6485 38.3553C69.0485 39.0753 69.2485 39.8686 69.2485 40.7353C69.2485 40.8686 69.2419 41.0153 69.2285 41.1753C69.2285 41.3219 69.2219 41.4886 69.2085 41.6753H61.4885C61.5552 42.6353 61.8685 43.3686 62.4285 43.8753C63.0019 44.3686 63.6619 44.6153 64.4085 44.6153C65.0085 44.6153 65.5085 44.4819 65.9085 44.2153C66.3219 43.9353 66.6285 43.5619 66.8285 43.0953H68.9485C68.6819 44.0286 68.1485 44.8086 67.3485 45.4353C66.5619 46.0619 65.5819 46.3753 64.4085 46.3753ZM64.4085 37.7153C63.7019 37.7153 63.0752 37.9286 62.5285 38.3553C61.9819 38.7686 61.6485 39.3953 61.5285 40.2353H67.1285C67.0885 39.4619 66.8152 38.8486 66.3085 38.3953C65.8019 37.9419 65.1685 37.7153 64.4085 37.7153ZM75.3543 46.1353C74.381 46.1353 73.6076 45.9019 73.0343 45.4353C72.461 44.9553 72.1743 44.1086 72.1743 42.8953V37.9953H70.4743V36.2153H72.1743L72.4343 33.6953H74.2943V36.2153H77.0943V37.9953H74.2943V42.8953C74.2943 43.4419 74.4076 43.8219 74.6343 44.0353C74.8743 44.2353 75.281 44.3353 75.8543 44.3353H76.9943V46.1353H75.3543ZM79.2802 50.5353V36.2153H81.1802L81.4002 37.7553C81.7202 37.2886 82.1602 36.8753 82.7202 36.5153C83.2802 36.1553 84.0002 35.9753 84.8802 35.9753C85.8402 35.9753 86.6869 36.2019 87.4202 36.6553C88.1536 37.1086 88.7269 37.7286 89.1402 38.5153C89.5669 39.3019 89.7802 40.1953 89.7802 41.1953C89.7802 42.1953 89.5669 43.0886 89.1402 43.8753C88.7269 44.6486 88.1536 45.2619 87.4202 45.7153C86.6869 46.1553 85.8336 46.3753 84.8602 46.3753C84.0869 46.3753 83.4002 46.2219 82.8002 45.9153C82.2136 45.6086 81.7469 45.1753 81.4002 44.6153V50.5353H79.2802ZM84.5002 44.5353C85.4069 44.5353 86.1536 44.2286 86.7402 43.6153C87.3269 42.9886 87.6202 42.1753 87.6202 41.1753C87.6202 40.5219 87.4869 39.9419 87.2202 39.4353C86.9536 38.9286 86.5869 38.5353 86.1202 38.2553C85.6536 37.9619 85.1136 37.8153 84.5002 37.8153C83.5936 37.8153 82.8469 38.1286 82.2602 38.7553C81.6869 39.3819 81.4002 40.1886 81.4002 41.1753C81.4002 42.1753 81.6869 42.9886 82.2602 43.6153C82.8469 44.2286 83.5936 44.5353 84.5002 44.5353ZM92.0732 46.1353V31.7353H94.1932V46.1353H92.0732ZM100.238 46.3753C99.3979 46.3753 98.7046 46.2353 98.1579 45.9553C97.6112 45.6753 97.2046 45.3086 96.9379 44.8553C96.6712 44.3886 96.5379 43.8819 96.5379 43.3353C96.5379 42.3753 96.9112 41.6153 97.6579 41.0553C98.4046 40.4953 99.4712 40.2153 100.858 40.2153H103.458V40.0353C103.458 39.2619 103.245 38.6819 102.818 38.2953C102.405 37.9086 101.865 37.7153 101.198 37.7153C100.611 37.7153 100.098 37.8619 99.6579 38.1553C99.2312 38.4353 98.9712 38.8553 98.8779 39.4153H96.7579C96.8246 38.6953 97.0646 38.0819 97.4779 37.5753C97.9046 37.0553 98.4379 36.6619 99.0779 36.3953C99.7312 36.1153 100.445 35.9753 101.218 35.9753C102.605 35.9753 103.678 36.3419 104.438 37.0753C105.198 37.7953 105.578 38.7819 105.578 40.0353V46.1353H103.738L103.558 44.4353C103.278 44.9819 102.871 45.4419 102.338 45.8153C101.805 46.1886 101.105 46.3753 100.238 46.3753ZM100.658 44.6553C101.231 44.6553 101.711 44.5219 102.098 44.2553C102.498 43.9753 102.805 43.6086 103.018 43.1553C103.245 42.7019 103.385 42.2019 103.438 41.6553H101.078C100.238 41.6553 99.6379 41.8019 99.2779 42.0953C98.9312 42.3886 98.7579 42.7553 98.7579 43.1953C98.7579 43.6486 98.9246 44.0086 99.2579 44.2753C99.6046 44.5286 100.071 44.6553 100.658 44.6553ZM112.75 46.3753C111.776 46.3753 110.903 46.1553 110.13 45.7153C109.37 45.2753 108.77 44.6686 108.33 43.8953C107.903 43.1086 107.69 42.2019 107.69 41.1753C107.69 40.1486 107.903 39.2486 108.33 38.4753C108.77 37.6886 109.37 37.0753 110.13 36.6353C110.903 36.1953 111.776 35.9753 112.75 35.9753C113.976 35.9753 115.003 36.2953 115.83 36.9353C116.67 37.5753 117.21 38.4419 117.45 39.5353H115.23C115.096 38.9886 114.803 38.5619 114.35 38.2553C113.896 37.9486 113.363 37.7953 112.75 37.7953C112.23 37.7953 111.75 37.9286 111.31 38.1953C110.87 38.4486 110.516 38.8286 110.25 39.3353C109.983 39.8286 109.85 40.4419 109.85 41.1753C109.85 41.9086 109.983 42.5286 110.25 43.0353C110.516 43.5286 110.87 43.9086 111.31 44.1753C111.75 44.4419 112.23 44.5753 112.75 44.5753C113.363 44.5753 113.896 44.4219 114.35 44.1153C114.803 43.8086 115.096 43.3753 115.23 42.8153H117.45C117.223 43.8819 116.69 44.7419 115.85 45.3953C115.01 46.0486 113.976 46.3753 112.75 46.3753ZM124.389 46.3753C123.416 46.3753 122.549 46.1619 121.789 45.7353C121.042 45.2953 120.456 44.6886 120.029 43.9153C119.602 43.1419 119.389 42.2419 119.389 41.2153C119.389 40.1753 119.596 39.2619 120.009 38.4753C120.436 37.6886 121.022 37.0753 121.769 36.6353C122.529 36.1953 123.409 35.9753 124.409 35.9753C125.382 35.9753 126.229 36.1953 126.949 36.6353C127.669 37.0619 128.229 37.6353 128.629 38.3553C129.029 39.0753 129.229 39.8686 129.229 40.7353C129.229 40.8686 129.222 41.0153 129.209 41.1753C129.209 41.3219 129.202 41.4886 129.189 41.6753H121.469C121.536 42.6353 121.849 43.3686 122.409 43.8753C122.982 44.3686 123.642 44.6153 124.389 44.6153C124.989 44.6153 125.489 44.4819 125.889 44.2153C126.302 43.9353 126.609 43.5619 126.809 43.0953H128.929C128.662 44.0286 128.129 44.8086 127.329 45.4353C126.542 46.0619 125.562 46.3753 124.389 46.3753ZM124.389 37.7153C123.682 37.7153 123.056 37.9286 122.509 38.3553C121.962 38.7686 121.629 39.3953 121.509 40.2353H127.109C127.069 39.4619 126.796 38.8486 126.289 38.3953C125.782 37.9419 125.149 37.7153 124.389 37.7153Z" fill="white"/>
<path d="M28.7167 0.0771484L19.3921 5.4623H10.0614C9.28099 5.4623 8.64049 6.1028 8.64049 6.88321V7.23766C8.64049 8.01807 9.28099 8.65857 10.0614 8.65857H13.1395H14.9491C15.7295 8.65857 16.37 9.29907 16.37 10.0795V10.4339C16.37 11.2143 15.7295 11.8548 14.9491 11.8548H13.1364H1.42091C0.640495 11.8548 0 12.4953 0 13.2757V13.6302C0 14.4106 0.640495 15.0511 1.42091 15.0511H5.56238H7.9658C8.74621 15.0511 9.38671 15.6885 9.38671 16.472V16.8265C9.38671 17.6069 8.74621 18.2474 7.9658 18.2474H5.56238C4.78197 18.2474 4.14458 18.8879 4.14458 19.6683V20.0227C4.14458 20.8031 4.78507 21.4436 5.56549 21.4436H20.5892L28.7167 26.1354L40 19.6217V6.59716L28.7167 0.0771484Z" fill="#FF014F"/>
<path d="M7.28797 7.06351C7.28797 7.98384 6.54176 8.73005 5.62143 8.73005C4.70111 8.73005 3.9549 7.98384 3.9549 7.06351C3.9549 6.14318 4.70111 5.39697 5.62143 5.39697C6.53865 5.39697 7.28797 6.14318 7.28797 7.06351Z" fill="#FF014F"/>
<path d="M37.8671 18.3872L28.7167 23.6698L19.5663 18.3872V7.8221L28.7167 2.53955L37.8671 7.8221V18.3872Z" fill="white"/>
<g opacity="0.4">
<path opacity="0.4" d="M28.7167 2.53955L19.5663 7.8221V8.25428L28.468 3.11476L37.3696 8.25428V18.5302L28.5923 23.5982L28.7167 23.6698L37.8671 18.3872V7.8221L28.7167 2.53955Z" fill="url(#paint0_linear_0_1207)"/>
</g>
<path d="M28.7167 6.43359L24.4568 13.0353L28.7167 15.4923L32.9765 13.0353L28.7167 6.43359ZM29.1429 7.87839L32.3777 12.8883L29.1429 14.7529V7.87839Z" fill="#FF014F"/>
<path d="M28.7167 16.5449L24.4568 13.9707L28.7167 19.7755L32.9765 13.9707L28.7167 16.5449ZM29.1429 16.7857L31.3718 15.4389L29.1429 18.4756V16.7857Z" fill="#FF014F"/>
<defs>
<linearGradient id="paint0_linear_0_1207" x1="28.7171" y1="23.6707" x2="28.7171" y2="2.53877" gradientUnits="userSpaceOnUse">
<stop stop-color="#66321D"/>
<stop offset="1" stop-color="#BE963D"/>
</linearGradient>
</defs>
</svg>
