<svg width="26" height="16" viewBox="0 0 26 16" fill="none" xmlns="http://www.w3.org/2000/svg">
<path d="M5.55096 7.52504H6.89675C7.18931 4.50348 9.60784 2.08622 12.631 1.79381V0.44873C8.86668 0.760634 5.86303 3.7627 5.55096 7.52504Z" fill="#FF4A4A"/>
<path d="M13.9181 14.5623V15.9074C17.6825 15.5955 20.7056 12.5934 20.9982 8.83105H19.6524C19.3598 11.8526 16.9413 14.2504 13.9181 14.5623Z" fill="#FF4A4A"/>
<path d="M25.2111 2.20319C24.9381 2.20319 24.7235 2.37863 24.665 2.63205H18.6772C17.429 1.40393 15.7711 0.604682 13.9182 0.44873V1.79381C16.9414 2.08622 19.3599 4.50348 19.6524 7.52504H20.9982C20.9787 7.17415 20.9202 6.84275 20.8422 6.51135H23.9239C23.9824 6.76478 24.2164 6.95972 24.4895 6.95972C24.8016 6.95972 25.0746 6.70629 25.0746 6.3749C25.0746 6.06299 24.8211 5.79008 24.4895 5.79008C24.2164 5.79008 24.0019 5.96552 23.9434 6.21894H20.7837C20.6277 5.59514 20.3741 4.99082 20.062 4.4255H22.7926C22.8511 4.67892 23.0852 4.87386 23.3582 4.87386C23.6703 4.87386 23.9434 4.62044 23.9434 4.28904C23.9434 3.97714 23.6898 3.70422 23.3582 3.70422C23.0852 3.70422 22.8706 3.87967 22.8121 4.13309H19.906C19.6329 3.68473 19.3209 3.27536 18.9698 2.88548H24.665C24.7235 3.1389 24.9576 3.33384 25.2306 3.33384C25.5427 3.33384 25.8158 3.08042 25.8158 2.74902C25.7963 2.45661 25.5427 2.20319 25.2111 2.20319Z" fill="#CA2FF2"/>
<path d="M6.89648 8.81152H5.55069C5.57019 9.16241 5.62871 9.49381 5.70672 9.82521H2.60556C2.54704 9.57179 2.31299 9.37685 2.03994 9.37685C1.72787 9.37685 1.45481 9.63027 1.45481 9.96167C1.45481 10.2736 1.70836 10.5465 2.03994 10.5465C2.31299 10.5465 2.52754 10.371 2.58605 10.1176H5.74573C5.90177 10.7414 6.15532 11.3457 6.46739 11.9111H3.7368C3.67829 11.6576 3.44424 11.4627 3.17118 11.4627C2.85911 11.4627 2.58605 11.7161 2.58605 12.0475C2.58605 12.3594 2.83961 12.6323 3.17118 12.6323C3.44424 12.6323 3.65878 12.4569 3.7173 12.2035H6.62342C6.89648 12.6518 7.20855 13.0612 7.55962 13.4511H1.8839C1.82539 13.1977 1.59134 13.0027 1.31828 13.0027C1.00621 13.0027 0.733154 13.2561 0.733154 13.5875C0.733154 13.8994 0.986709 14.1724 1.31828 14.1724C1.59134 14.1724 1.80588 13.9969 1.8644 13.7435H7.85218C9.10045 14.9716 10.7778 15.7514 12.6112 15.9073V14.5622C9.60756 14.2503 7.18904 11.8526 6.89648 8.81152Z" fill="#CA2FF2"/>
<path d="M16.7011 7.92711C16.9918 7.59257 17.1768 7.15238 17.1768 6.67698C17.1768 5.62933 16.3224 4.78418 15.283 4.78418H12.5083C12.385 4.6081 12.1736 4.49365 11.9446 4.49365C11.5659 4.49365 11.2576 4.80178 11.2576 5.18034C11.2576 5.5589 11.5659 5.86704 11.9446 5.86704C12.1736 5.86704 12.385 5.75259 12.5083 5.57651H15.2742C15.8819 5.57651 16.3752 6.06952 16.3752 6.67698C16.3752 7.28444 15.8819 7.77745 15.2742 7.77745H13.7415V5.86704H12.94V10.4802H13.7415V8.57859H15.283H15.9612C16.569 8.57859 17.0623 9.0716 17.0623 9.67905C17.0623 10.2865 16.569 10.7795 15.9612 10.7795H11.3985C11.2752 10.6034 11.0638 10.489 10.8348 10.489C10.456 10.489 10.1477 10.7971 10.1477 11.1757C10.1477 11.5543 10.456 11.8624 10.8348 11.8624C11.0638 11.8624 11.2752 11.7479 11.3985 11.5719H15.9524C17.0006 11.5719 17.8462 10.7179 17.8462 9.67905C17.855 8.88672 17.3794 8.21763 16.7011 7.92711ZM11.9446 5.40044C11.8301 5.40044 11.7332 5.3036 11.7332 5.18915C11.7332 5.0747 11.8301 4.97786 11.9446 4.97786C12.0591 4.97786 12.156 5.0747 12.156 5.18915C12.1648 5.3036 12.0679 5.40044 11.9446 5.40044ZM10.8348 11.3782C10.7202 11.3782 10.6234 11.2813 10.6234 11.1669C10.6234 11.0524 10.7202 10.9556 10.8348 10.9556C10.9493 10.9556 11.0462 11.0524 11.0462 11.1669C11.055 11.2813 10.9581 11.3782 10.8348 11.3782Z" fill="#FF4A4A"/>
<path d="M10.3501 7.63779C10.5791 7.63779 10.7905 7.52329 10.9138 7.34712H12.4817V6.54556H10.9138C10.7905 6.36939 10.5791 6.25488 10.3501 6.25488C9.97132 6.25488 9.66303 6.56318 9.66303 6.94193C9.65422 7.3295 9.96251 7.63779 10.3501 7.63779ZM10.3501 6.73053C10.4646 6.73053 10.5615 6.82743 10.5615 6.94193C10.5615 7.05644 10.4646 7.15334 10.3501 7.15334C10.2356 7.15334 10.1387 7.05644 10.1387 6.94193C10.1387 6.82743 10.2268 6.73053 10.3501 6.73053Z" fill="#FF4A4A"/>
<path d="M12.5169 9.42451V8.62295H9.95367C9.83035 8.44678 9.61895 8.33228 9.38993 8.33228C9.01117 8.33228 8.70288 8.64057 8.70288 9.01933C8.70288 9.39809 9.01117 9.70638 9.38993 9.70638C9.61895 9.70638 9.83035 9.59187 9.95367 9.4157H12.5169V9.42451ZM9.38993 9.23954C9.27542 9.23954 9.17853 9.14264 9.17853 9.02814C9.17853 8.91363 9.27542 8.81673 9.38993 8.81673C9.50444 8.81673 9.60133 8.91363 9.60133 9.02814C9.61014 9.14264 9.51325 9.23954 9.38993 9.23954Z" fill="#FF4A4A"/>
</svg>
