<svg width="36" height="36" viewBox="0 0 36 36" fill="none" xmlns="http://www.w3.org/2000/svg">
<circle cx="18.3165" cy="17.8447" r="17.5" fill="white"/>
<path d="M22.9027 7.84473H13.7303C10.7451 7.84473 8.31653 10.2733 8.31653 13.2585V22.4311C8.31653 25.4161 10.7451 27.8447 13.7303 27.8447H22.9029C25.8879 27.8447 28.3165 25.4161 28.3165 22.4311V13.2585C28.3165 10.2733 25.8879 7.84473 22.9027 7.84473V7.84473ZM27.144 22.4311C27.144 24.7696 25.2414 26.6722 22.9027 26.6722H13.7303C11.3916 26.6722 9.48901 24.7696 9.48901 22.4311V13.2585C9.48901 10.9198 11.3916 9.01721 13.7303 9.01721H22.9029C25.2414 9.01721 27.144 10.9198 27.144 13.2585V22.4311Z" fill="#FF014F"/>
<path d="M18.3165 12.376C15.3011 12.376 12.8479 14.8291 12.8479 17.8446C12.8479 20.86 15.3011 23.3132 18.3165 23.3132C21.332 23.3132 23.7851 20.86 23.7851 17.8446C23.7851 14.8291 21.332 12.376 18.3165 12.376ZM18.3165 22.1407C15.9478 22.1407 14.0204 20.2135 14.0204 17.8446C14.0204 15.4758 15.9478 13.5485 18.3165 13.5485C20.6855 13.5485 22.6126 15.4758 22.6126 17.8446C22.6126 20.2135 20.6855 22.1407 18.3165 22.1407Z" fill="#FF014F"/>
<path d="M23.9159 10.4341C23.0248 10.4341 22.3 11.159 22.3 12.05C22.3 12.9411 23.0248 13.666 23.9159 13.666C24.807 13.666 25.532 12.9411 25.532 12.05C25.532 11.1589 24.807 10.4341 23.9159 10.4341ZM23.9159 12.4934C23.6714 12.4934 23.4725 12.2944 23.4725 12.05C23.4725 11.8054 23.6714 11.6066 23.9159 11.6066C24.1605 11.6066 24.3595 11.8054 24.3595 12.05C24.3595 12.2944 24.1605 12.4934 23.9159 12.4934Z" fill="#FF014F"/>
</svg>
