<svg width="16" height="11" viewBox="0 0 16 11" fill="none" xmlns="http://www.w3.org/2000/svg">
<path d="M15.7785 5.02691L11.0057 0.254141C10.8771 0.129941 10.7049 0.0612164 10.5261 0.0627699C10.3473 0.0643234 10.1763 0.13603 10.0499 0.262446C9.92348 0.388862 9.85177 0.559872 9.85021 0.738644C9.84866 0.917417 9.91739 1.08965 10.0416 1.21824L13.6505 4.82714H1.65991C1.47908 4.82714 1.30566 4.89897 1.17779 5.02684C1.04992 5.15471 0.978088 5.32813 0.978088 5.50896C0.978088 5.6898 1.04992 5.86322 1.17779 5.99109C1.30566 6.11895 1.47908 6.19079 1.65991 6.19079H13.6505L10.0416 9.79969C9.97646 9.86258 9.92452 9.93782 9.88879 10.021C9.85305 10.1042 9.83424 10.1937 9.83346 10.2842C9.83267 10.3747 9.84992 10.4645 9.88421 10.5483C9.91849 10.6321 9.96912 10.7082 10.0331 10.7722C10.0972 10.8363 10.1733 10.8869 10.2571 10.9212C10.3409 10.9555 10.4306 10.9727 10.5212 10.9719C10.6117 10.9711 10.7012 10.9523 10.7844 10.9166C10.8676 10.8809 10.9428 10.8289 11.0057 10.7638L15.7785 5.99101C15.9063 5.86315 15.9781 5.68976 15.9781 5.50896C15.9781 5.32817 15.9063 5.15478 15.7785 5.02691Z" fill="black"/>
</svg>
