<svg width="36" height="36" viewBox="0 0 36 36" fill="none" xmlns="http://www.w3.org/2000/svg">
<circle cx="18.1621" cy="17.8447" r="17.5" fill="white"/>
<path d="M18.1621 7.84473C12.6479 7.84473 8.16211 12.3305 8.16211 17.8447C8.16211 19.7259 8.6848 21.552 9.67634 23.1378C9.28134 24.5217 8.56788 27.1393 8.56019 27.1666C8.52326 27.302 8.56288 27.4466 8.66403 27.544C8.76519 27.6413 8.91134 27.6759 9.04442 27.6351L13.0083 26.4159C14.561 27.3513 16.339 27.8447 18.1621 27.8447C23.6763 27.8447 28.1621 23.359 28.1621 17.8447C28.1621 12.3305 23.6763 7.84473 18.1621 7.84473ZM18.1621 27.0755C16.424 27.0755 14.731 26.5897 13.2656 25.6713C13.2036 25.6324 13.1325 25.6128 13.0613 25.6128C13.0233 25.6128 12.9852 25.6186 12.9483 25.6297L9.48711 26.6951C9.74134 25.767 10.1983 24.107 10.4633 23.1836C10.494 23.0766 10.4767 22.9613 10.4163 22.8678C9.4448 21.3728 8.93134 19.6359 8.93134 17.8447C8.93134 12.7551 13.0725 8.61396 18.1621 8.61396C23.2517 8.61396 27.3929 12.7551 27.3929 17.8447C27.3929 22.9343 23.2517 27.0755 18.1621 27.0755Z" fill="#FF014F"/>
<path d="M24.6948 20.2008C23.9848 19.8066 23.3802 19.4112 22.939 19.1227C22.6021 18.9027 22.3586 18.7439 22.1802 18.6543C21.6813 18.4054 21.3033 18.5812 21.1594 18.7266C21.1413 18.7446 21.1252 18.7643 21.1113 18.785C20.5933 19.5623 19.9167 20.3058 19.7186 20.3458C19.4898 20.31 18.4186 19.7012 17.354 18.8146C16.2671 17.9089 15.5833 17.0416 15.4829 16.4508C16.1802 15.7331 16.4313 15.2816 16.4313 14.7677C16.4313 14.2381 15.196 12.027 14.9725 11.8035C14.7483 11.5796 14.2433 11.5446 13.4713 11.6985C13.3971 11.7135 13.3286 11.75 13.2748 11.8035C13.1813 11.897 10.9944 14.1266 12.0336 16.8289C13.1744 19.7946 16.1025 23.242 19.8356 23.802C20.2598 23.8654 20.6575 23.897 21.0298 23.897C23.226 23.897 24.5221 22.792 24.8871 20.6C24.9144 20.4396 24.8371 20.2796 24.6948 20.2008ZM19.9498 23.0412C16.0021 22.4493 13.5156 18.5381 12.7517 16.5527C11.994 14.5835 13.3913 12.8277 13.7421 12.4308C14.0275 12.3823 14.3279 12.362 14.4533 12.3816C14.7152 12.7458 15.6221 14.4593 15.6621 14.7677C15.6621 14.9696 15.5963 15.2508 14.8133 16.0343C14.741 16.1062 14.7006 16.2039 14.7006 16.3062C14.7006 18.32 18.9483 21.1139 19.7006 21.1139C20.3548 21.1139 21.2079 20.0143 21.6936 19.2977C21.7217 19.2989 21.769 19.3085 21.8363 19.3423C21.9748 19.412 22.2148 19.5685 22.5183 19.767C22.919 20.0289 23.4513 20.3766 24.0798 20.737C23.7944 22.11 22.9967 23.4989 19.9498 23.0412Z" fill="#FF014F"/>
</svg>
