<svg width="36" height="36" viewBox="0 0 36 36" fill="none" xmlns="http://www.w3.org/2000/svg">
<circle cx="18.1042" cy="17.96" r="17.5" fill="white"/>
<path d="M28.1042 11.7473C27.3542 12.0723 26.5792 12.2973 25.7542 12.3973C26.6042 11.8973 27.2542 11.0973 27.5542 10.1223C26.7542 10.5973 25.8792 10.9223 24.9542 11.1223C24.2042 10.3223 23.1292 9.82227 21.9542 9.82227C19.6792 9.82227 17.8542 11.6723 17.8542 13.9223C17.8542 14.2473 17.8792 14.5473 17.9542 14.8473C14.5542 14.6973 11.5542 13.0473 9.52925 10.5723C8.07925 13.1723 9.70425 15.3223 10.7792 16.0473C10.1292 16.0473 9.47925 15.8473 8.92925 15.5473C8.92925 17.5723 10.3542 19.2473 12.2042 19.6223C11.8042 19.7473 10.9042 19.8223 10.3542 19.6973C10.8792 21.3223 12.4042 22.5223 14.1792 22.5473C12.7792 23.6473 10.7292 24.5223 8.10425 24.2473C9.92925 25.4223 12.0792 26.0973 14.4042 26.0973C21.9542 26.0973 26.0542 19.8473 26.0542 14.4473C26.0542 14.2723 26.0542 14.0973 26.0292 13.9223C26.8792 13.2973 27.5792 12.5723 28.1042 11.7473Z" fill="#FF014F"/>
</svg>
