<svg width="21" height="13" viewBox="0 0 21 13" fill="none" xmlns="http://www.w3.org/2000/svg">
<path d="M11.7338 11.756L20.6339 2.85574C20.8399 2.64989 20.9534 2.3751 20.9534 2.08209C20.9534 1.78909 20.8399 1.51429 20.6339 1.30844L19.9786 0.652998C19.5516 0.226497 18.8576 0.226497 18.4313 0.652998L10.9575 8.12676L3.47546 0.644704C3.26945 0.438852 2.99482 0.325195 2.70197 0.325195C2.4088 0.325195 2.13417 0.438852 1.92799 0.644704L1.27288 1.30015C1.06686 1.50616 0.953369 1.78079 0.953369 2.0738C0.953369 2.3668 1.06686 2.6416 1.27288 2.84745L10.1811 11.756C10.3878 11.9623 10.6637 12.0757 10.957 12.075C11.2515 12.0757 11.5273 11.9623 11.7338 11.756Z" fill="#FF014F"/>
</svg>
