<svg width="36" height="36" viewBox="0 0 36 36" fill="none" xmlns="http://www.w3.org/2000/svg">
<circle cx="18.3165" cy="17.96" r="17.5" fill="white"/>
<path d="M27.9045 13.1492C27.6739 12.2924 26.9984 11.617 26.1418 11.3863C24.5767 10.958 18.3163 10.958 18.3163 10.958C18.3163 10.958 12.0561 10.958 10.491 11.37C9.6509 11.6006 8.95892 12.2925 8.72836 13.1492C8.31653 14.7141 8.31653 17.9596 8.31653 17.9596C8.31653 17.9596 8.31653 21.2215 8.72836 22.7701C8.95907 23.6267 9.63442 24.3022 10.4912 24.5329C12.0726 24.9612 18.3165 24.9612 18.3165 24.9612C18.3165 24.9612 24.5767 24.9612 26.1418 24.5493C26.9985 24.3187 27.6739 23.6432 27.9046 22.7866C28.3164 21.2215 28.3164 17.9761 28.3164 17.9761C28.3164 17.9761 28.3329 14.7141 27.9045 13.1492Z" fill="#FF014F"/>
<path d="M16.3231 20.9581L21.5289 17.9598L16.3231 14.9614V20.9581Z" fill="white"/>
</svg>
